<svg width="128" height="128" viewBox="0 0 128 128" fill="none" xmlns="http://www.w3.org/2000/svg">
<rect width="128" height="128" fill="#1C8AA9" fill-opacity="0.1"/>
<path d="M67.3845 20.1898C67.4449 20.1493 67.4881 20.0844 67.4881 20.0114L67.4881 17.8625C67.4881 16.2893 66.1407 14.9999 64.4909 14.9999C62.8412 14.9999 61.4938 16.2812 61.4938 17.8625L61.4938 20.0114C61.4938 20.0844 61.537 20.1493 61.5974 20.1898L56.4582 31.5589C56.4236 31.64 56.4409 31.7373 56.51 31.8022C56.5791 31.867 56.6828 31.8833 56.7691 31.8508L58.583 31.1372L58.7644 31.713C58.7816 31.7778 58.8335 31.8265 58.9026 31.8508C58.9717 31.8751 59.0408 31.8751 59.1012 31.8427L60.6387 31.0642L61.3556 31.6967C61.4247 31.7616 61.537 31.7778 61.6233 31.7292L63.1262 30.9994L64.3614 31.8184C64.3614 31.8184 64.3614 31.8184 64.37 31.8184C64.3787 31.8265 64.3873 31.8265 64.3959 31.8265C64.4046 31.8265 64.4046 31.8346 64.4132 31.8346C64.4218 31.8346 64.4305 31.8427 64.4305 31.8427C64.4391 31.8427 64.4478 31.8508 64.4564 31.8508C64.465 31.8508 64.4737 31.8508 64.4737 31.8508C64.4823 31.8508 64.4909 31.8508 64.4996 31.8508C64.5082 31.8508 64.5169 31.8508 64.5255 31.8508C64.5341 31.8508 64.5428 31.8508 64.5514 31.8508C64.56 31.8508 64.5687 31.8508 64.5687 31.8427C64.5773 31.8427 64.586 31.8427 64.5946 31.8346C64.6032 31.8346 64.6032 31.8265 64.6119 31.8265C64.6205 31.8265 64.6291 31.8184 64.6378 31.8184C64.6378 31.8184 64.6378 31.8184 64.6464 31.8184L65.8816 30.9994L67.3845 31.7292C67.4708 31.7697 67.5831 31.7616 67.6522 31.6967L68.3691 31.0642L69.9066 31.8427C69.967 31.8752 70.0448 31.8752 70.1052 31.8508C70.1743 31.8265 70.2175 31.7697 70.2434 31.713L70.4248 31.1372L72.2387 31.8508C72.325 31.8833 72.4287 31.867 72.4978 31.8022C72.5669 31.7373 72.5842 31.64 72.5496 31.5589L67.3845 20.1898ZM61.9602 17.8625C61.9602 16.5326 63.0917 15.446 64.4909 15.446C65.8902 15.446 67.0217 16.5326 67.0217 17.8625L67.0217 18.6896L61.9688 18.6896L61.9688 17.8625L61.9602 17.8625ZM61.9602 19.1275L67.0131 19.1275L67.0131 19.7844L66.0457 19.7844L65.2856 19.7844L64.776 19.7844L64.1973 19.7844L63.6877 19.7844L62.9276 19.7844L61.9602 19.7844L61.9602 19.1275ZM58.5398 30.675L57.1146 31.2345L62.0898 20.2304L62.5907 20.2304L58.5398 30.675ZM60.4659 30.6507L59.1185 31.3318L58.9717 30.8534L63.0917 20.2385L63.3854 20.2385L60.4659 30.6507ZM62.9189 30.6101L61.5456 31.2751L60.9237 30.7236L63.8691 20.2304L63.9468 20.2304L62.9189 30.6101ZM64.4909 31.3805L63.3854 30.6507L64.4132 20.2304L64.56 20.2304L65.5879 30.6507L64.4909 31.3805ZM67.4363 31.2751L66.0629 30.6101L65.0351 20.2304L65.1128 20.2304L68.0582 30.7236L67.4363 31.2751ZM69.8634 31.3237L68.516 30.6426L65.5965 20.2223L65.8902 20.2223L70.0102 30.8372L69.8634 31.3237ZM70.4421 30.675L66.3912 20.2304L66.9008 20.2304L71.8759 31.2345L70.4421 30.675Z" fill="#04162C" fill-opacity="0.5"/>
<path d="M97.6921 52.1201C97.6921 52.1201 100.998 43.7185 96.1359 39.0221C95.5756 38.4771 94.9197 37.9325 94.1875 37.4198C93.523 36.9546 92.8533 36.5563 92.2071 36.2307L92.2124 36.2344C86.082 33.1406 78.9807 39.0183 78.9807 39.0183C78.9807 39.0183 72.878 42.7574 70.2997 50.5448C68.0422 57.3592 73.2076 62.6688 74.5338 63.8904L58.1684 86.5346L58.1601 86.5288C58.1601 86.5288 57.864 86.3844 57.7911 86.468C57.7176 86.5524 52.2692 92.1101 51.9354 92.4825L51.9289 92.4836C51.9289 92.4836 51.916 92.5015 51.8939 92.532C51.8675 92.5686 42.8032 105.1 42.7858 105.127L42.781 105.134C42.7666 105.147 41.9928 105.865 41.8344 105.953C41.0824 106.383 40.9332 106.89 40.8561 107.086C40.7796 107.283 41.0336 107.488 41.1809 107.61C41.3177 107.723 44.1028 109.673 44.2568 109.763C44.4206 109.86 44.7023 110.029 44.8651 109.892C45.0289 109.756 45.4651 109.451 45.6312 108.612C45.6651 108.435 46.0999 107.48 46.1077 107.463L46.1126 107.456C46.1329 107.431 55.1872 94.892 55.2131 94.8562C55.2352 94.8256 55.2489 94.8083 55.2489 94.8083L55.2478 94.8019C55.4942 94.3683 59.042 87.4797 59.0982 87.3832C59.1553 87.2885 58.9195 87.0606 58.9195 87.0606L58.9105 87.0542L59.1954 86.66L75.2773 64.411C76.889 65.2454 83.675 68.3032 89.4751 63.9716C96.1042 59.0206 97.6921 52.1201 97.6921 52.1201ZM82.051 38.0117C82.5407 37.7439 83.0862 37.4726 83.6736 37.225C83.7969 37.1721 83.9195 37.1233 84.0409 37.0747L82.8238 38.6976L81.9775 38.0994L82.051 38.0117ZM81.8189 38.2858L82.6773 38.8924L81.4238 40.564L80.4658 39.8864L81.8189 38.2858ZM81.2786 40.7586L80.0161 42.4428L78.9435 41.6851L80.3078 40.0721L81.2786 40.7586ZM81.4347 38.3637L80.2673 39.7451L79.8261 39.434C80.1436 39.1972 80.7031 38.7999 81.4347 38.3637ZM79.4289 39.734L79.5279 39.663C79.5303 39.6613 79.5636 39.634 79.6229 39.588L80.1087 39.9316L78.7457 41.5443L77.8577 40.9158C78.7864 40.1349 79.42 39.7401 79.4289 39.734ZM76.1843 42.4841C76.7147 41.9339 77.2197 41.4658 77.667 41.0809L78.5887 41.7318L77.2567 43.3079L76.1478 42.5236C76.1595 42.5105 76.1726 42.4972 76.1843 42.4841ZM75.9779 42.7021L77.0992 43.4929L75.7456 45.0942L74.616 44.2977C75.0869 43.6901 75.5493 43.1586 75.9779 42.7021ZM74.4678 44.4902L75.5878 45.2812L74.1711 46.9573L73.2285 46.2929C73.6353 45.6359 74.0527 45.0347 74.4678 44.4902ZM71.2459 50.4161C71.4747 49.7714 71.7271 49.1568 71.9983 48.5744L72.5027 48.9299L71.2459 50.4161ZM72.1047 48.3503C72.4176 47.6928 72.7547 47.0757 73.1021 46.5007L74.013 47.143L72.66 48.7436L72.1047 48.3503ZM70.6423 54.9514C70.5949 54.4771 70.5793 54.0026 70.6017 53.5289L71.325 54.0398L70.6423 54.9514ZM71.4704 53.8464L70.6218 53.2466C70.6775 52.5055 70.8185 51.7657 71.0446 51.0305L71.119 50.9434L72.7709 52.1113L71.4704 53.8464ZM72.9167 51.9159L71.276 50.7559L72.7016 49.0691L74.2366 50.154L72.9167 51.9159ZM74.3825 49.9599L72.8585 48.8849L74.2116 47.2843L75.6356 48.2904L74.3825 49.9599ZM75.7806 48.0945L74.3689 47.0981L75.7874 45.421L77.0937 46.3435L75.7806 48.0945ZM77.2389 46.1489L75.9442 45.2355L77.297 43.6336L78.4916 44.4768L77.2389 46.1489ZM77.455 43.4479L78.7885 41.8729L79.8703 42.6382L78.637 44.2834L77.455 43.4479ZM71.2204 57.4923C71.1237 57.2226 71.0406 56.9545 70.9658 56.6843L71.5219 57.0782L71.2204 57.4923ZM71.6649 56.882L70.8688 56.3178C70.7872 55.9801 70.7268 55.6414 70.6805 55.3037L71.5222 54.1813L72.9141 55.166L71.6649 56.882ZM73.0583 54.9695L71.6688 53.9864L72.9693 52.2513L74.3353 53.2168L73.0583 54.9695ZM74.4788 53.0198L73.115 52.0559L74.4356 50.2946L75.7738 51.2405L74.4788 53.0198ZM75.9173 51.0435L74.5809 50.0999L75.8332 48.4299L77.1463 49.3571L75.9173 51.0435ZM77.2887 49.1617L75.9779 48.236L77.2915 46.4843L78.5767 47.392L77.2887 49.1617ZM78.7222 47.1953L77.438 46.2894L78.6914 44.6179L79.9518 45.5082L78.7222 47.1953ZM80.094 45.3114L78.8359 44.4227L80.0686 42.7782L81.3041 43.6512L80.094 45.3114ZM81.4476 43.4542L80.2151 42.5833L81.4777 40.8992L82.6863 41.7544L81.4476 43.4542ZM82.8292 41.5581L81.6232 40.7058L82.8758 39.0337L84.0593 39.8703L82.8292 41.5581ZM84.202 39.6728L83.0221 38.8376L84.246 37.2038L85.4028 38.0239L84.202 39.6728ZM85.5458 37.8276L84.392 37.0096L84.4643 36.9143C85.2136 36.642 85.9393 36.4464 86.6422 36.3246L85.5458 37.8276ZM72.2246 59.6412C71.864 59.0161 71.5665 58.3902 71.3228 57.765L71.7192 57.2197L73.2149 58.2805L72.2246 59.6412ZM73.3589 58.0827L71.8634 57.0232L73.1124 55.306L74.6097 56.3645L73.3589 58.0827ZM74.7532 56.1675L73.2567 55.1095L74.5341 53.3561L76.0299 54.4135L74.7532 56.1675ZM76.1737 54.2178L74.6771 53.1598L75.9736 51.3816L77.4698 52.437L76.1737 54.2178ZM77.6122 52.2415L76.1171 51.1846L77.3461 49.4982L78.8402 50.5533L77.6122 52.2415ZM78.9832 50.3571L77.4883 49.3014L78.7776 47.5316L80.2717 48.5867L78.9832 50.3571ZM80.4147 48.3905L78.9206 47.3353L80.1494 45.6477L81.6434 46.7028L80.4147 48.3905ZM81.7869 46.5059L80.2931 45.452L81.5025 43.7912L82.9952 44.8465L81.7869 46.5059ZM83.1382 44.6503L81.6454 43.5949L82.8846 41.8944L84.3761 42.95L83.1382 44.6503ZM84.5202 42.7522L83.0281 41.6974L84.2569 40.0097L85.7482 41.0641L84.5202 42.7522ZM85.8917 40.8671L84.4004 39.8128L85.6014 38.1651L87.0914 39.2197L85.8917 40.8671ZM87.2345 39.0247L85.7443 37.9689L86.9765 36.278L88.4636 37.335L87.2345 39.0247ZM88.6071 37.138L87.3263 36.2289C87.9965 36.1571 88.6449 36.1565 89.2687 36.2274L88.6071 37.138ZM73.7398 61.5306C73.0371 60.8231 72.5834 60.1966 72.3648 59.8617L73.4137 58.4197L75.1221 59.6305L73.7398 61.5306ZM75.2658 59.4348L73.5572 58.2227L74.8081 56.5045L76.5175 57.7138L75.2658 59.4348ZM76.6605 57.5176L74.9505 56.309L76.2278 54.5543L77.9383 55.7621L76.6605 57.5176ZM78.0818 55.5651L76.3712 54.3573L77.6668 52.5772L79.3773 53.7851L78.0818 55.5651ZM79.5203 53.5888L77.8105 52.3815L79.0393 50.6939L80.7483 51.9006L79.5203 53.5888ZM80.8912 51.7044L79.1815 50.4971L80.4701 48.7267L82.1798 49.934L80.8912 51.7044ZM82.3235 49.7383L80.6138 48.531L81.8425 46.8434L83.5515 48.0501L82.3235 49.7383ZM83.6937 47.8534L81.9853 46.6459L83.1941 44.9858L84.9013 46.1935L83.6937 47.8534ZM85.0442 45.9973L83.3365 44.7903L84.575 43.0892L86.2822 44.2969L85.0442 45.9973ZM86.4257 44.1L84.718 42.893L85.9475 41.2059L87.6544 42.4123L86.4257 44.1ZM87.7972 42.2148L86.0902 41.0083L87.2894 39.3617L88.9934 40.5706L87.7972 42.2148ZM89.1377 40.3741L87.4323 39.1655L88.662 37.475L90.3657 38.6859L89.1377 40.3741ZM90.5079 38.4892L88.8055 37.2781L89.544 36.2641C90.2862 36.3752 90.9908 36.5902 91.6596 36.9081L90.5079 38.4892ZM94.0056 57.9855L92.8201 57.1487L93.9099 55.366L95.0934 56.2025C94.7824 56.7694 94.4205 57.3691 94.0056 57.9855ZM95.2096 55.9853L94.0383 55.1585L95.1091 53.4084L96.1023 54.1095C95.8696 54.6638 95.5767 55.2983 95.2096 55.9853ZM96.893 51.8176L96.8567 51.937C96.8518 51.9594 96.6698 52.712 96.1963 53.879L95.2375 53.2009L96.3396 51.4044L96.9015 51.8012C96.8963 51.8099 96.893 51.8176 96.893 51.8176ZM97.5672 49.4217C97.3586 50.4184 97.1141 51.1867 96.9844 51.564L96.4645 51.1955L97.5566 49.4143L97.5672 49.4217ZM95.0379 53.0611L93.9636 52.3011L95.1662 50.5759L96.1377 51.263L95.0379 53.0611ZM96.2669 51.056L95.3053 50.3771L96.4969 48.6656L97.3583 49.2743L96.2669 51.056ZM97.9098 46.888C97.9027 46.9998 97.8966 47.1134 97.8859 47.2271C97.8448 47.7472 97.7798 48.2483 97.7007 48.7126L97.4844 49.0652L96.6359 48.4654L97.7928 46.8049L97.9098 46.888ZM93.8543 38.2293C94.4079 38.6282 94.9192 39.0479 95.3821 39.4843L94.209 41.12L92.5889 39.9677L93.8543 38.2293ZM92.4467 40.1644L94.0668 41.3168L92.8559 43.008L91.2206 41.8484L92.4467 40.1644ZM91.0766 42.0461L92.7126 43.2062L91.5311 44.8552L89.882 43.6881L91.0766 42.0461ZM89.7379 43.8858L91.3884 45.0527L90.1722 46.748L88.5105 45.5732L89.7379 43.8858ZM88.3675 45.7695L90.03 46.9448L88.8036 48.6543L87.129 47.4705L88.3675 45.7695ZM86.9863 47.668L88.6609 48.8518L87.4657 50.5181L85.7791 49.3259L86.9863 47.668ZM85.6361 49.5221L87.3248 50.7146L86.1073 52.4102L84.4089 51.2108L85.6361 49.5221ZM84.2657 51.4058L85.9664 52.6067L84.6888 54.3871L82.9761 53.1777L84.2657 51.4058ZM82.8344 53.3737L84.5466 54.5838L83.3312 56.2797L81.6064 55.0619L82.8344 53.3737ZM81.4619 55.257L83.1897 56.477L81.9044 58.2665L80.1668 57.0397L81.4619 55.257ZM80.0243 57.2352L81.7622 58.4632L80.4948 60.2294L78.746 58.9914L80.0243 57.2352ZM78.6018 59.1878L80.3536 60.4279L79.1095 62.1588L77.349 60.9103L78.6018 59.1878ZM91.8806 37.0168C92.4769 37.3221 93.0749 37.6814 93.6571 38.0878L92.3906 39.8277L90.7072 38.631L91.8806 37.0168ZM90.5642 38.8272L92.2484 40.0244L91.0225 41.7096L89.336 40.5141L90.5642 38.8272ZM89.1931 40.7104L90.8788 41.9053L89.6836 43.5481L87.9963 42.3553L89.1931 40.7104ZM87.8528 42.5523L89.5401 43.745L88.3119 45.4319L86.6246 44.2392L87.8528 42.5523ZM86.4811 44.4362L88.1684 45.6289L86.9315 47.3311L85.2441 46.1383L86.4811 44.4362ZM85.1004 46.334L86.7883 47.526L85.582 49.1857L83.8934 47.9931L85.1004 46.334ZM83.7499 48.1901L85.4385 49.3826L84.2098 51.0703L82.5224 49.8776L83.7499 48.1901ZM82.3789 50.0745L84.0673 51.2658L82.7788 53.0362L81.0909 51.8442L82.3789 50.0745ZM80.9468 52.0419L82.6355 53.2344L81.4067 54.9221L79.7173 53.729L80.9468 52.0419ZM79.5757 53.9251L81.2643 55.1176L79.9682 56.8984L78.2796 55.7059L79.5757 53.9251ZM78.1366 55.9021L79.8247 57.0954L78.5466 58.8529L76.8585 57.6596L78.1366 55.9021ZM76.7153 57.8546L78.4036 59.0491L77.1501 60.771L75.4636 59.5755L76.7153 57.8546ZM73.9157 61.7032L75.3217 59.7703L77.0077 60.9665L75.523 63.0082C74.8938 62.5822 74.3594 62.1317 73.9157 61.7032ZM75.7219 63.1475L77.2055 61.1073L78.9688 62.3566L77.5916 64.2748C77.0097 63.992 76.3686 63.6216 75.7219 63.1475ZM95.5641 39.6533C96.068 40.1475 96.4933 40.7035 96.8399 41.3212L96.0483 42.4259L94.4081 41.2606L95.5641 39.6533ZM94.2669 41.4591L95.9051 42.6242L94.6941 44.3108L93.0535 43.1475L94.2669 41.4591ZM92.9123 43.346L94.5511 44.507L93.3709 46.1557L91.728 44.9941L92.9123 43.346ZM91.5867 45.1927L93.2284 46.3545L92.0127 48.0491L90.3706 46.888L91.5867 45.1927ZM90.2276 47.0843L91.8698 48.2453L90.6441 49.9554L89.0019 48.7943L90.2276 47.0843ZM88.8613 48.9921L90.5024 50.1514L89.3086 51.8175L87.6653 50.6579L88.8613 48.9921ZM87.5226 50.8554L89.1658 52.015L87.9509 53.7101L86.3069 52.55L87.5226 50.8554ZM86.1642 52.7475L87.8082 53.9076L86.5306 55.6879L84.8872 54.5271L86.1642 52.7475ZM84.747 54.7241L86.3899 55.8857L85.1737 57.5811L83.5303 56.4202L84.747 54.7241ZM83.3866 56.6159L85.03 57.7768L83.7469 59.5679L82.1035 58.407L83.3866 56.6159ZM81.962 58.6043L83.6044 59.7666L82.3373 61.5341L80.6949 60.3717L81.962 58.6043ZM80.5519 60.5679L82.1964 61.7306L80.9514 63.4642L79.3101 62.3003L80.5519 60.5679ZM77.8155 64.381L79.1674 62.4979L80.8087 63.6617L79.7853 65.0902C79.3781 64.9881 78.6688 64.7765 77.8155 64.381ZM96.9659 41.5598C97.2835 42.1784 97.5196 42.8533 97.6805 43.5867L96.2431 42.5645L96.9659 41.5598ZM96.1019 42.7631L97.5895 43.8193L96.3813 45.5068L94.8926 44.4521L96.1019 42.7631ZM94.7504 44.6488L96.2391 45.7036L95.0587 47.351L93.5687 46.2965L94.7504 44.6488ZM93.4275 46.495L94.9159 47.5485L93.7018 49.2442L92.2111 48.1891L93.4275 46.495ZM92.0683 48.3866L93.5596 49.4409L92.336 51.1513L90.8425 50.0954L92.0683 48.3866ZM90.7005 50.2934L92.193 51.3475L90.9997 53.0128L89.5056 51.9577L90.7005 50.2934ZM89.3634 52.1544L90.8575 53.2096L89.6434 54.9052L88.1478 53.849L89.3634 52.1544ZM88.0065 54.0476L89.5006 55.1028L88.2238 56.8836L86.7297 55.8285L88.0065 54.0476ZM86.589 56.0263L88.0831 57.0814L86.8684 58.7778L85.3711 57.7193L86.589 56.0263ZM85.2293 57.9186L86.7272 58.9764L85.4421 60.7671L83.9463 59.7097L85.2293 57.9186ZM83.8033 59.9059L85.2999 60.9639L84.032 62.7308L82.5349 61.6735L83.8033 59.9059ZM82.394 61.8701L83.8913 62.9286L82.6475 64.6653L81.1505 63.6047L82.394 61.8701ZM80.1286 65.1678C80.1087 65.164 80.0784 65.1573 80.0428 65.1515L81.0072 63.803L82.5042 64.8635L82.1287 65.3863C81.4791 65.3636 80.8126 65.2921 80.1286 65.1678ZM97.7635 43.9962C97.8832 44.6783 97.941 45.4068 97.9331 46.1792L97.7349 46.4658L96.5812 45.6479L97.7635 43.9962ZM96.4384 45.8454L97.595 46.6642L96.4396 48.3257L95.2576 47.4902L96.4384 45.8454ZM95.1163 47.6888L96.2998 48.5254L95.1068 50.2358L93.9022 49.3845L95.1163 47.6888ZM93.7595 49.582L94.9686 50.4365L93.767 52.1634L92.533 51.2915L93.7595 49.582ZM92.3914 51.4875L93.6271 52.3617L92.4548 54.0418L91.1988 53.1534L92.3914 51.4875ZM91.0568 53.3514L92.3164 54.2412L91.1233 55.9516L89.8412 55.046L91.0568 53.3514ZM89.6997 55.2433L90.987 56.1514L89.7335 57.9485L88.4242 57.0239L89.6997 55.2433ZM88.2809 57.2222L89.5953 58.1492L88.4011 59.8611L87.0662 58.9186L88.2809 57.2222ZM86.9233 59.1148L88.264 60.0603L87.0024 61.8687L85.6402 60.9059L86.9233 59.1148ZM85.4989 61.1044L86.8632 62.0676L85.6206 63.8544L84.2305 62.8721L85.4989 61.1044ZM82.4242 65.3934L82.7018 65.003L83.2293 65.3768C82.9646 65.3913 82.6942 65.395 82.4242 65.3934ZM83.609 65.3475L82.8438 64.805L84.0898 63.0699L85.4802 64.0535L84.6863 65.196C84.3336 65.2633 83.9742 65.3147 83.609 65.3475ZM93.8267 52.5015L94.9108 53.2684L93.8392 55.0179L92.656 54.1827L93.8267 52.5015ZM92.5168 54.3815L93.7121 55.2252L92.6215 57.0074L91.3237 56.092L92.5168 54.3815ZM91.1848 56.2921L92.4916 57.2139L91.3445 59.0867L89.932 58.0898L91.1848 56.2921ZM89.7943 58.2898L91.2189 59.2951L90.1244 61.0779L88.6002 60.0017L89.7943 58.2898ZM88.4616 60.1998L89.9988 61.2863L88.8452 63.1714L87.2017 62.0105L88.4616 60.1998ZM85.0335 65.1237L85.6808 64.1951L86.4081 64.71C85.9625 64.8806 85.5029 65.0157 85.0335 65.1237ZM86.6753 64.6008L85.8187 63.9964L87.062 62.2101L88.7173 63.3782L88.6159 63.5451C87.9982 63.9713 87.35 64.3234 86.6753 64.6008ZM89.1293 63.1739L90.1987 61.4273L90.7432 61.812C90.2422 62.2761 89.7059 62.7324 89.1293 63.1739ZM90.9223 61.6411L90.3258 61.22L91.4172 59.4351L92.3788 60.114C91.9332 60.627 91.4501 61.1385 90.9223 61.6411ZM91.5459 59.2288L92.6914 57.3549L93.8689 58.1873C93.473 58.7586 93.0309 59.3437 92.5363 59.9291L91.5459 59.2288Z" fill="#04162C" fill-opacity="0.5"/>
<path d="M49.6643 38.8844C49.6643 38.8844 42.6851 33.0549 36.5831 36.0356C35.8763 36.3779 35.1385 36.8091 34.4062 37.3219C33.7418 37.7871 33.1399 38.2793 32.6154 38.7734L32.6207 38.7697C27.6409 43.4554 30.9529 51.9863 30.9529 51.9863C30.9529 51.9863 32.54 58.8873 39.1683 63.8389C44.968 68.173 51.758 65.1113 53.3654 64.2788L69.7307 86.923L69.7224 86.9288C69.7224 86.9288 69.4867 87.1568 69.543 87.252C69.5999 87.348 73.147 94.2371 73.3949 94.6697L73.3938 94.676C73.3938 94.676 73.4068 94.6939 73.4288 94.7245C73.4552 94.761 82.509 107.299 82.5294 107.324L82.5342 107.331C82.5425 107.349 82.9774 108.304 83.0108 108.48C83.1766 109.321 83.6136 109.625 83.7766 109.761C83.9404 109.897 84.2213 109.728 84.3859 109.631C84.5399 109.541 87.325 107.591 87.4618 107.477C87.6083 107.357 87.8631 107.15 87.7846 106.954C87.7082 106.757 87.5583 106.251 86.8076 105.822C86.6486 105.732 85.8748 105.015 85.861 105.002L85.8561 104.995C85.8388 104.968 76.7739 92.4361 76.748 92.4003C76.726 92.3698 76.7138 92.3514 76.7138 92.3514L76.7073 92.3503C76.372 91.9789 70.9243 86.4207 70.8501 86.3368C70.7779 86.2527 70.4818 86.3971 70.4818 86.3971L70.4728 86.4035L70.1878 86.0092L54.1089 63.7581C55.4383 62.5332 60.5987 57.226 58.3438 50.4121C55.7662 42.6241 49.6643 38.8844 49.6643 38.8844ZM30.9938 48.8012C30.8974 48.2581 30.8159 47.6618 30.7709 47.0344C30.7606 46.9024 30.754 46.7724 30.7472 46.6436L31.9055 48.3076L31.0538 48.8984L30.9938 48.8012ZM31.1807 49.1069L32.0445 48.5077L33.2376 50.2215L32.2732 50.8901L31.1807 49.1069ZM33.3768 50.4203L34.5791 52.1467L33.5001 52.8955L32.3995 51.0979L33.3768 50.4203ZM31.1295 49.4897L32.0724 51.0284L31.6292 51.3365C31.506 50.9636 31.3082 50.3131 31.1295 49.4897ZM31.7868 51.8042L31.7511 51.6889C31.7502 51.6861 31.735 51.6463 31.7103 51.576L32.1994 51.237L33.3002 53.0333L32.4058 53.6528C31.9608 52.5332 31.7897 51.8145 31.7868 51.8042ZM33.362 55.7232C33.0079 55.0496 32.7244 54.4265 32.5016 53.8843L33.4286 53.2408L34.5044 54.9963L33.388 55.7702C33.3793 55.755 33.3707 55.7385 33.362 55.7232ZM33.5036 55.9867L34.6303 55.2034L35.7232 56.9873L34.5883 57.7763C34.1596 57.1392 33.8011 56.5349 33.5036 55.9867ZM34.7245 57.9773L35.8509 57.1953L36.9949 59.0624L36.0481 59.7209C35.551 59.1272 35.1109 58.5419 34.7245 57.9773ZM39.3551 62.9168C38.8114 62.4926 38.3043 62.0563 37.8343 61.6132L38.3409 61.2607L39.3551 62.9168ZM37.6541 61.4407C37.1257 60.9341 36.644 60.4183 36.2061 59.9066L37.1213 59.2703L38.2137 61.0534L37.6541 61.4407ZM43.5099 64.9655C43.0391 64.8541 42.5786 64.7129 42.1313 64.5367L42.8589 64.0317L43.5099 64.9655ZM42.721 63.8331L41.867 64.4254C41.174 64.1306 40.5102 63.7568 39.8788 63.3055L39.8195 63.2078L41.4823 62.0547L42.721 63.8331ZM41.3425 61.8551L39.6911 63.0002L38.5398 61.1214L40.0844 60.05L41.3425 61.8551ZM39.946 59.8505L38.4145 60.9151L37.322 59.132L38.7547 58.1378L39.946 59.8505ZM38.6142 57.9387L37.1949 58.9246L36.0506 57.0555L37.3644 56.1434L38.6142 57.9387ZM37.2252 55.9446L35.924 56.849L34.8302 55.0656L36.0313 54.2314L37.2252 55.9446ZM34.7039 54.8578L33.6295 53.1013L34.7189 52.3463L35.8934 54.0327L34.7039 54.8578ZM46.1381 65.2614C45.8475 65.2628 45.563 65.2521 45.2792 65.2331L45.8396 64.8452L46.1381 65.2614ZM45.6981 64.6479L44.8956 65.2031C44.5447 65.1681 44.1999 65.1133 43.8605 65.0456L43.0594 63.8947L44.4609 62.9235L45.6981 64.6479ZM44.3197 62.7249L42.9204 63.6946L41.6817 61.9162L43.0563 60.9627L44.3197 62.7249ZM42.9143 60.7646L41.542 61.7166L40.2846 59.9109L41.6314 58.9769L42.9143 60.7646ZM41.4894 58.7788L40.1454 59.712L38.9533 57.9998L40.2739 57.083L41.4894 58.7788ZM40.133 56.8864L38.8147 57.8017L37.5643 56.0057L38.8571 55.1083L40.133 56.8864ZM38.716 54.9085L37.4254 55.8055L36.2322 54.0918L37.5001 53.2119L38.716 54.9085ZM37.3579 53.0151L36.0923 53.8935L34.9183 52.2078L36.1613 51.3453L37.3579 53.0151ZM36.0193 51.1473L34.7793 52.0077L33.577 50.2813L34.7942 49.438L36.0193 51.1473ZM34.6527 49.2407L33.4391 50.0826L32.2452 48.3695L33.4362 47.5433L34.6527 49.2407ZM33.2935 47.3458L32.1049 48.1691L30.9383 46.4952L32.1048 45.6885L33.2935 47.3458ZM31.9633 45.4912L30.7999 46.2958L30.7321 46.1973C30.7165 45.4112 30.7668 44.6723 30.8804 43.9787L31.9633 45.4912ZM48.5299 65.0324C47.8117 65.1626 47.1133 65.234 46.4334 65.2555L46.0401 64.7081L47.5487 63.6653L48.5299 65.0324ZM47.4061 63.4665L45.8988 64.5096L44.6603 62.7849L46.1673 61.7398L47.4061 63.4665ZM46.0254 61.5418L44.5191 62.5864L43.2552 60.8234L44.7607 59.7794L46.0254 61.5418ZM44.62 59.5815L43.1138 60.6261L41.8323 58.8373L43.336 57.7923L44.62 59.5815ZM43.195 57.5957L41.6903 58.6393L40.4749 56.9434L41.9776 55.9002L43.195 57.5957ZM41.8361 55.7029L40.3327 56.7466L39.0569 54.9673L40.5596 53.9241L41.8361 55.7029ZM40.4182 53.7268L38.9155 54.77L37.6987 53.0739L39.2014 52.0307L40.4182 53.7268ZM39.0595 51.8326L37.558 52.8761L36.3607 51.2068L37.8632 50.1649L39.0595 51.8326ZM37.7218 49.9676L36.2193 51.0095L34.9936 49.2995L36.4959 48.2588L37.7218 49.9676ZM36.3534 48.06L34.8516 49.1015L33.6349 47.4054L35.1359 46.3645L36.3534 48.06ZM34.9939 46.1664L33.4929 47.2073L32.3055 45.5502L33.8063 44.5106L34.9939 46.1664ZM33.6661 44.3135L32.1641 45.3529L30.9454 43.6526L32.4476 42.6164L33.6661 44.3135ZM32.3056 42.4184L31.0129 43.3112C31.1639 42.6644 31.3759 42.0614 31.6485 41.5046L32.3056 42.4184ZM50.8401 64.2431C49.9307 64.6644 49.1806 64.8809 48.7875 64.9743L47.7476 63.526L49.4699 62.3346L50.8401 64.2431ZM49.3292 62.1368L47.6056 63.328L46.3668 61.6013L48.088 60.4084L49.3292 62.1368ZM47.9466 60.2111L46.2259 61.4048L44.9607 59.6416L46.6809 58.4472L47.9466 60.2111ZM46.5389 58.2492L44.8187 59.4436L43.5352 57.655L45.2554 56.4607L46.5389 58.2492ZM45.1139 56.2634L43.3945 57.4572L42.1777 55.7611L43.8964 54.5678L45.1139 56.2634ZM43.755 54.3705L42.0355 55.5644L40.759 53.7856L42.4785 52.5917L43.755 54.3705ZM42.3378 52.3939L40.6183 53.5877L39.4016 51.8916L41.1203 50.6983L42.3378 52.3939ZM40.9781 50.5015L39.2589 51.6941L38.0621 50.0256L39.7811 48.8343L40.9781 50.5015ZM39.6397 48.637L37.9212 49.8291L36.6948 48.1196L38.4138 46.9282L39.6397 48.637ZM38.2718 46.7302L36.5533 47.9223L35.3374 46.2256L37.0551 45.0341L38.2718 46.7302ZM36.9123 44.8366L35.1946 46.0281L34.0075 44.373L35.7266 43.185L36.9123 44.8366ZM35.5854 42.9864L33.8661 44.1757L32.647 42.4779L34.3679 41.2909L35.5854 42.9864ZM34.2257 41.0941L32.505 42.2799L31.774 41.2606C32.1241 40.6069 32.5616 40.0222 33.086 39.5046L34.2257 41.0941ZM54.0845 44.2361L52.8925 45.064L51.539 43.4659L52.73 42.6398C53.1721 43.1149 53.6289 43.6481 54.0845 44.2361ZM52.5596 42.4605L51.382 43.2784L50.0536 41.7088L51.0522 41.0152C51.5079 41.4134 52.0208 41.8938 52.5596 42.4605ZM49.1119 39.5283L49.2145 39.6012C49.2344 39.6131 49.897 40.0291 50.8617 40.8522L49.8965 41.5213L48.5337 39.9073L49.0988 39.5149C49.1055 39.5226 49.1119 39.5283 49.1119 39.5283ZM47.0335 38.1156C47.9216 38.6364 48.5789 39.1157 48.8984 39.3601L48.3742 39.7226L47.023 38.123L47.0335 38.1156ZM49.6969 41.6611L48.6151 42.4107L47.3538 40.7267L48.3318 40.0486L49.6969 41.6611ZM48.1755 39.8606L47.2086 40.5321L45.9568 38.8628L46.8235 38.2615L48.1755 39.8606ZM44.7141 36.966C44.8191 37.0092 44.9261 37.0521 45.0318 37.0994C45.5174 37.3082 45.9771 37.533 46.3968 37.7589L46.6642 38.0756L45.8103 38.6679L44.5961 37.0475L44.7141 36.966ZM35.0739 37.8972C35.6383 37.5132 36.2088 37.1755 36.7794 36.8881L37.9646 38.5154L36.3272 39.6439L35.0739 37.8972ZM36.4694 39.8407L38.1068 38.7122L39.3327 40.3928L37.6835 41.5331L36.4694 39.8407ZM37.826 41.7319L39.476 40.5911L40.6711 42.2305L39.0101 43.3812L37.826 41.7319ZM39.1526 43.58L40.8138 42.428L42.042 44.1149L40.3695 45.2748L39.1526 43.58ZM40.511 45.4721L42.1843 44.3117L43.4227 46.0128L41.7374 47.1816L40.511 45.4721ZM41.8801 47.3791L43.5655 46.2103L44.7727 47.8681L43.0753 49.0454L41.8801 47.3791ZM43.2168 49.2427L44.9151 48.0636L46.1431 49.7518L44.435 50.9377L43.2168 49.2427ZM44.5751 51.1348L46.2855 49.9473L47.5752 51.7192L45.8527 52.9151L44.5751 51.1348ZM45.9944 53.1111L47.7174 51.9159L48.9464 53.6023L47.2119 54.8067L45.9944 53.1111ZM47.3518 55.0051L49.0893 53.7985L50.3852 55.5806L48.6379 56.794L47.3518 55.0051ZM48.7788 56.9906L50.5274 55.7774L51.8068 57.5351L50.0451 58.7552L48.7788 56.9906ZM50.1863 58.9538L51.9511 57.7316L53.2042 59.456L51.4286 60.6836L50.1863 58.9538ZM33.2628 39.3348C33.7514 38.8804 34.2924 38.4422 34.8734 38.0342L36.1278 39.7825L34.4272 40.9553L33.2628 39.3348ZM34.5686 41.1526L36.27 39.9792L37.4853 41.6718L35.7848 42.8479L34.5686 41.1526ZM35.9263 43.0452L37.626 41.8696L38.8106 43.5197L37.1125 44.6976L35.9263 43.0452ZM37.2545 44.8956L38.9526 43.7178L40.1688 45.4131L38.4707 46.5909L37.2545 44.8956ZM38.6127 46.789L40.3108 45.6112L41.5387 47.3196L39.8406 48.4974L38.6127 46.789ZM39.9813 48.6952L41.6789 47.5167L42.8761 49.1827L41.1777 50.3617L39.9813 48.6952ZM41.3197 50.5598L43.0181 49.3807L44.2348 51.0768L42.5367 52.2546L41.3197 50.5598ZM42.6787 52.4526L44.3757 51.2733L45.6522 53.0522L43.9546 54.2307L42.6787 52.4526ZM44.0972 54.4295L45.7955 53.2504L47.0122 54.9465L45.3131 56.1261L44.0972 54.4295ZM45.4548 56.3221L47.1531 55.143L48.4372 56.9323L46.7388 58.1114L45.4548 56.3221ZM46.8803 58.3087L48.5792 57.1303L49.8467 58.8952L48.1478 60.0736L46.8803 58.3087ZM48.288 60.2706L49.9882 59.0925L51.2297 60.8229L49.5292 61.999L48.288 60.2706ZM51.0635 64.1361L49.6695 62.1948L51.3706 61.0194L52.8432 63.0696C52.2279 63.515 51.6203 63.8641 51.0635 64.1361ZM53.042 62.9303L51.5706 60.8817L53.3479 59.6518L54.7372 61.5615C54.2749 62.0098 53.7092 62.4845 53.042 62.9303ZM37.0013 36.7744C37.6409 36.4679 38.314 36.2548 39.0205 36.135L39.8211 37.2334L38.1647 38.3764L37.0013 36.7744ZM38.309 38.5728L39.9644 37.4317L41.186 39.1109L39.5314 40.2548L38.309 38.5728ZM39.6757 40.4513L41.3274 39.3082L42.5227 40.9464L40.869 42.0931L39.6757 40.4513ZM41.0132 42.2895L42.6667 41.1441L43.8944 42.8302L42.2415 43.9764L41.0132 42.2895ZM42.3829 44.1737L44.0359 43.0275L45.2751 44.7281L43.6221 45.8743L42.3829 44.1737ZM43.7658 46.07L45.4167 44.9241L46.6242 46.5807L44.9723 47.7283L43.7658 46.07ZM45.1151 47.9258L46.7669 46.7782L47.9954 48.4638L46.3428 49.612L45.1151 47.9258ZM46.4855 49.8095L48.1381 48.6613L49.4277 50.4332L47.7746 51.5806L46.4855 49.8095ZM47.9178 51.7756L49.5715 50.6289L50.7997 52.3158L49.1465 53.4633L47.9178 51.7756ZM49.2872 53.6611L50.9404 52.5136L52.2385 54.2941L50.5854 55.4416L49.2872 53.6611ZM50.7283 55.6378L52.3826 54.4919L53.6633 56.2498L52.009 57.3958L50.7283 55.6378ZM52.1505 57.593L53.8057 56.4453L55.0612 58.1715L53.4059 59.3159L52.1505 57.593ZM54.9126 61.3882L53.5486 59.5135L55.2039 58.369L56.2393 59.7891C56.0077 60.1342 55.572 60.7244 54.9126 61.3882ZM39.2908 36.0961C39.9887 36.0037 40.7139 36.0055 41.4705 36.0965L40.0181 37.0978L39.2908 36.0961ZM40.1623 37.2942L41.6639 36.2574L42.8872 37.9343L41.3867 38.9726L40.1623 37.2942ZM41.5289 39.1694L43.0294 38.131L44.2234 39.769L42.7226 40.8086L41.5289 39.1694ZM42.8669 41.005L44.3661 39.9665L45.5953 41.6516L44.0938 42.6917L42.8669 41.005ZM44.2366 42.8892L45.7375 41.8483L46.9777 43.5471L45.4745 44.5896L44.2366 42.8892ZM45.618 44.7865L47.1192 43.7444L48.3261 45.4002L46.8234 46.4434L45.618 44.7865ZM46.9656 46.6402L48.4683 45.597L49.6975 47.2821L48.1933 48.3264L46.9656 46.6402ZM48.3375 48.5228L49.8402 47.4796L51.1306 49.2509L49.6279 50.2942L48.3375 48.5228ZM49.7716 50.4899L51.2743 49.4466L52.5041 51.1325L50.9971 52.1776L49.7716 50.4899ZM51.1419 52.3748L52.6483 51.3289L53.9455 53.1113L52.44 54.1553L51.1419 52.3748ZM52.5815 54.3526L54.0877 53.308L55.3676 55.0665L53.8619 56.1118L52.5815 54.3526ZM54.0044 56.3073L55.5114 55.2622L56.7702 56.9883L55.2613 58.0324L54.0044 56.3073ZM56.4264 59.4953C56.4162 59.5126 56.3998 59.5386 56.3826 59.5698L55.4046 58.2307L56.9135 57.1865L57.292 57.7072C57.0572 58.3038 56.7699 58.9001 56.4264 59.4953ZM41.8907 36.1536C42.5846 36.266 43.3028 36.4512 44.0415 36.7119L44.2516 36.9901L43.0881 37.7947L41.8907 36.1536ZM43.2309 37.9922L44.3961 37.1853L45.6118 38.8046L44.4223 39.6297L43.2309 37.9922ZM44.5665 39.8262L45.7576 39L47.0079 40.6704L45.7957 41.5113L44.5665 39.8262ZM45.9385 41.7088L47.1551 40.8647L48.4184 42.5484L47.1769 43.4098L45.9385 41.7088ZM47.3186 43.6059L48.5629 42.7436L49.7909 44.3846L48.5263 45.2612L47.3186 43.6059ZM48.6698 45.4581L49.9369 44.5788L51.1872 46.2491L49.8974 47.1443L48.6698 45.4581ZM50.0404 47.3405L51.3341 46.4414L52.6478 48.1964L51.331 49.1106L50.0404 47.3405ZM51.4743 49.3089L52.7951 48.3908L54.0465 50.0626L52.704 50.9947L51.4743 49.3089ZM52.8455 51.192L54.1927 50.2554L55.5145 52.0216L54.1436 52.9725L52.8455 51.192ZM54.2879 53.169L55.6597 52.2163L56.9671 53.9578L55.5684 54.9282L54.2879 53.169ZM57.3958 57.4348L57.1121 57.0486L57.6439 56.6807C57.571 56.9315 57.4859 57.1842 57.3958 57.4348ZM57.7403 56.318L56.9686 56.8516L55.7121 55.1239L57.1121 54.1537L57.9482 55.2666C57.8971 55.6166 57.8286 55.9677 57.7403 56.318ZM48.7625 42.6038L49.8541 41.8473L51.1818 43.4175L49.992 44.2438L48.7625 42.6038ZM50.1373 44.4384L51.3391 43.6037L52.6918 45.2023L51.3876 46.1088L50.1373 44.4384ZM51.5341 46.3037L52.8473 45.3908L54.2686 47.0717L52.8486 48.0581L51.5341 46.3037ZM52.9953 48.2517L54.4274 47.2568L55.7795 48.8592L54.2467 49.9236L52.9953 48.2517ZM54.3913 50.1175L55.9383 49.0444L57.3691 50.7353L55.716 51.8828L54.3913 50.1175ZM57.9927 54.92L57.3138 54.0136L58.0465 53.5062C58.0641 53.9765 58.043 54.4481 57.9927 54.92ZM58.0293 53.2219L57.1683 53.8202L55.8617 52.0782L57.5256 50.9221L57.6526 51.0711C57.859 51.7853 57.9844 52.5035 58.0293 53.2219ZM57.4647 50.472L56.1392 48.9048L56.687 48.5246C56.9681 49.1427 57.2301 49.791 57.4647 50.472ZM56.5817 48.302L55.9819 48.7186L54.6268 47.1183L55.5938 46.4468C55.94 47.0295 56.2724 47.6464 56.5817 48.302ZM54.471 46.931L53.0483 45.2512L54.2333 44.4294C54.6518 44.9849 55.0683 45.5879 55.4679 46.2397L54.471 46.931Z" fill="#04162C" fill-opacity="0.5"/>
</svg>
