<svg width="314" height="179" viewBox="0 0 314 179" fill="none" xmlns="http://www.w3.org/2000/svg">
<path d="M1 8.66894C1 4.25066 4.58172 0.668945 9 0.668945H305C309.418 0.668945 313 4.25067 313 8.66895V170.331C313 174.749 309.418 178.331 305 178.331H9C4.58172 178.331 1 174.749 1 170.331V8.66894Z" fill="#1C8AA9" fill-opacity="0.1"/>
<path d="M192.406 157.544H201.594C202.439 157.544 203.125 158.23 203.125 159.075V168.263C203.125 168.669 202.964 169.058 202.677 169.345C202.389 169.633 202 169.794 201.594 169.794H192.406C192 169.794 191.611 169.633 191.323 169.345C191.036 169.058 190.875 168.669 190.875 168.263V159.075C190.875 158.23 191.561 157.544 192.406 157.544ZM192.188 159.075V168.263C192.188 168.383 192.286 168.481 192.406 168.481H201.594C201.652 168.481 201.707 168.458 201.748 168.417C201.789 168.376 201.812 168.321 201.812 168.263V159.075C201.812 159.017 201.789 158.962 201.748 158.921C201.707 158.879 201.652 158.856 201.594 158.856H192.406C192.348 158.856 192.293 158.879 192.252 158.921C192.211 158.962 192.188 159.017 192.188 159.075ZM200.307 162.164L196.37 166.101C196.247 166.224 196.08 166.293 195.906 166.293C195.732 166.293 195.566 166.224 195.442 166.101L193.692 164.351C193.577 164.227 193.514 164.062 193.516 163.892C193.519 163.722 193.588 163.56 193.708 163.44C193.829 163.32 193.991 163.251 194.161 163.248C194.331 163.245 194.496 163.308 194.62 163.424L195.906 164.71L199.38 161.236C199.504 161.121 199.669 161.057 199.839 161.06C200.009 161.063 200.171 161.132 200.292 161.252C200.412 161.373 200.481 161.535 200.484 161.705C200.486 161.875 200.423 162.039 200.307 162.164Z" fill="#04162C" fill-opacity="0.5"/>
<path d="M214.879 166.669H213.404V160.839H210.255V166.669H208.78V159.623H214.879V166.669ZM218.419 166.776C216.832 166.776 215.826 165.756 215.826 164.052V164.042C215.826 162.357 216.852 161.327 218.419 161.327C219.986 161.327 221.012 162.348 221.012 164.042V164.052C221.012 165.761 220.001 166.776 218.419 166.776ZM218.424 165.658C219.122 165.658 219.562 165.072 219.562 164.052V164.042C219.562 163.031 219.112 162.445 218.419 162.445C217.73 162.445 217.276 163.031 217.276 164.042V164.052C217.276 165.077 217.721 165.658 218.424 165.658ZM223.429 164.472H223.258V166.669H221.832V161.435H223.258V163.49H223.429L225.035 161.435H226.656L224.664 163.861L226.778 166.669H225.064L223.429 164.472ZM228.878 166.752C227.828 166.752 227.115 166.093 227.115 165.17V165.16C227.115 164.208 227.853 163.651 229.156 163.568L230.45 163.49V163.168C230.45 162.704 230.147 162.416 229.586 162.416C229.054 162.416 228.736 162.665 228.663 163.002L228.653 163.046H227.35L227.354 162.987C227.433 162.021 228.263 161.327 229.649 161.327C230.997 161.327 231.876 162.025 231.876 163.08V166.669H230.45V165.888H230.421C230.118 166.425 229.562 166.752 228.878 166.752ZM228.526 165.097C228.526 165.482 228.849 165.712 229.337 165.712C229.977 165.712 230.45 165.302 230.45 164.755V164.379L229.371 164.447C228.819 164.481 228.526 164.716 228.526 165.087V165.097ZM235.006 166.776C233.634 166.776 232.76 166.156 232.652 165.102L232.647 165.053H234L234.015 165.106C234.122 165.502 234.459 165.697 234.996 165.697C235.548 165.697 235.875 165.468 235.875 165.077V165.067C235.875 164.667 235.577 164.467 234.977 164.467H234.269V163.578H234.967C235.499 163.578 235.768 163.378 235.768 162.997V162.987C235.768 162.621 235.484 162.406 235.006 162.406C234.503 162.406 234.19 162.606 234.117 162.992L234.112 163.031H232.779L232.784 162.992C232.921 161.913 233.712 161.327 235.045 161.327C236.358 161.327 237.154 161.884 237.154 162.802V162.812C237.154 163.378 236.803 163.788 236.192 163.925V163.964C236.91 164.096 237.296 164.506 237.296 165.131V165.141C237.296 166.127 236.393 166.776 235.006 166.776ZM239.708 166.752C238.658 166.752 237.945 166.093 237.945 165.17V165.16C237.945 164.208 238.683 163.651 239.986 163.568L241.28 163.49V163.168C241.28 162.704 240.978 162.416 240.416 162.416C239.884 162.416 239.566 162.665 239.493 163.002L239.483 163.046H238.18L238.185 162.987C238.263 162.021 239.093 161.327 240.479 161.327C241.827 161.327 242.706 162.025 242.706 163.08V166.669H241.28V165.888H241.251C240.948 166.425 240.392 166.752 239.708 166.752ZM239.356 165.097C239.356 165.482 239.679 165.712 240.167 165.712C240.807 165.712 241.28 165.302 241.28 164.755V164.379L240.201 164.447C239.649 164.481 239.356 164.716 239.356 165.087V165.097ZM247.901 161.435V162.514H246.344V166.669H244.918V162.514H243.36V161.435H247.901ZM248.629 166.669V161.435H250.055V162.948H251.07C252.306 162.948 253.097 163.671 253.097 164.804V164.813C253.097 165.946 252.306 166.669 251.07 166.669H248.629ZM250.812 164.022H250.055V165.595H250.812C251.324 165.595 251.646 165.287 251.646 164.813V164.804C251.646 164.325 251.324 164.022 250.812 164.022ZM255.875 166.669V161.435H260.68V166.669H259.254V162.509H257.301V166.669H255.875ZM264.078 166.776C262.472 166.776 261.5 165.736 261.5 164.062V164.057C261.5 162.392 262.481 161.327 264.02 161.327C265.553 161.327 266.51 162.367 266.51 163.949V164.389H262.906C262.926 165.224 263.38 165.712 264.107 165.712C264.693 165.712 265.05 165.39 265.147 165.097L265.157 165.067H266.466L266.456 165.121C266.29 165.893 265.567 166.776 264.078 166.776ZM264.044 162.392C263.453 162.392 263.019 162.782 262.926 163.49H265.143C265.055 162.768 264.63 162.392 264.044 162.392ZM267.32 168.378V161.435H268.746V162.348H268.775C269.063 161.713 269.63 161.327 270.377 161.327C271.705 161.327 272.511 162.343 272.511 164.047V164.052C272.511 165.751 271.705 166.776 270.396 166.776C269.645 166.776 269.059 166.396 268.775 165.775H268.746V168.378H267.32ZM269.903 165.595C270.616 165.595 271.061 165.004 271.061 164.052V164.047C271.061 163.09 270.611 162.509 269.903 162.509C269.215 162.509 268.736 163.104 268.736 164.052V164.057C268.736 164.999 269.215 165.595 269.903 165.595ZM275.709 166.776C274.103 166.776 273.131 165.736 273.131 164.062V164.057C273.131 162.392 274.112 161.327 275.65 161.327C277.184 161.327 278.141 162.367 278.141 163.949V164.389H274.537C274.557 165.224 275.011 165.712 275.738 165.712C276.324 165.712 276.681 165.39 276.778 165.097L276.788 165.067H278.097L278.087 165.121C277.921 165.893 277.198 166.776 275.709 166.776ZM275.675 162.392C275.084 162.392 274.649 162.782 274.557 163.49H276.773C276.686 162.768 276.261 162.392 275.675 162.392ZM278.951 168.378V161.435H280.377V162.348H280.406C280.694 161.713 281.261 161.327 282.008 161.327C283.336 161.327 284.142 162.343 284.142 164.047V164.052C284.142 165.751 283.336 166.776 282.027 166.776C281.275 166.776 280.689 166.396 280.406 165.775H280.377V168.378H278.951ZM281.534 165.595C282.247 165.595 282.691 165.004 282.691 164.052V164.047C282.691 163.09 282.242 162.509 281.534 162.509C280.846 162.509 280.367 163.104 280.367 164.052V164.057C280.367 164.999 280.846 165.595 281.534 165.595ZM284.967 166.669V161.435H286.393V162.948H287.408C288.644 162.948 289.435 163.671 289.435 164.804V164.813C289.435 165.946 288.644 166.669 287.408 166.669H284.967ZM289.991 166.669V161.435H291.417V166.669H289.991ZM287.149 164.022H286.393V165.595H287.149C287.662 165.595 287.984 165.287 287.984 164.813V164.804C287.984 164.325 287.662 164.022 287.149 164.022ZM292.438 166.669V161.435H295.06C296.148 161.435 296.803 161.933 296.803 162.758V162.768C296.803 163.324 296.393 163.812 295.855 163.896V163.935C296.554 164.022 297.037 164.501 297.037 165.15V165.16C297.037 166.073 296.295 166.669 295.108 166.669H292.438ZM293.839 163.539H294.601C295.123 163.539 295.401 163.339 295.401 162.948V162.938C295.401 162.553 295.143 162.348 294.674 162.348H293.839V163.539ZM293.839 165.751H294.703C295.26 165.751 295.567 165.521 295.567 165.072V165.062C295.567 164.623 295.245 164.413 294.64 164.413H293.839V165.751ZM297.896 166.669V161.435H299.322V162.948H300.338C301.573 162.948 302.364 163.671 302.364 164.804V164.813C302.364 165.946 301.573 166.669 300.338 166.669H297.896ZM302.921 166.669V161.435H304.347V166.669H302.921ZM300.079 164.022H299.322V165.595H300.079C300.592 165.595 300.914 165.287 300.914 164.813V164.804C300.914 164.325 300.592 164.022 300.079 164.022Z" fill="#04162C" fill-opacity="0.5"/>
<path d="M2.9502 125.561C14.8002 125.561 14.8002 98.7065 26.6502 98.7065C38.5002 98.7065 38.5002 136.75 50.3502 136.75C62.2002 136.75 62.2002 53.9497 74.0502 53.9497C85.9002 53.9497 85.9002 71.8524 97.7502 71.8524C109.6 71.8524 109.6 114.371 121.45 114.371C133.3 114.371 133.3 109.896 145.15 109.896C157 109.896 157 76.3281 168.85 76.3281C180.7 76.3281 180.7 105.42 192.55 105.42C204.4 105.42 204.4 78.5659 216.25 78.5659C228.1 78.5659 228.1 87.5173 239.95 87.5173C251.8 87.5173 251.8 67.3767 263.65 67.3767C275.5 67.3767 275.5 65.1389 287.35 65.1389C299.2 65.1389 299.2 121.085 311.05 121.085" stroke="#213551"/>
<circle cx="2.5" cy="124.85" r="2" fill="#213551" stroke="#EFF2F4"/>
<circle cx="26.5" cy="98.8496" r="2" fill="#213551" stroke="#EFF2F4"/>
<circle cx="49.5" cy="136.85" r="2" fill="#213551" stroke="#EFF2F4"/>
<circle cx="73.5" cy="53.8496" r="2" fill="#213551" stroke="#EFF2F4"/>
<circle cx="97.5" cy="71.8496" r="2" fill="#213551" stroke="#EFF2F4"/>
<circle cx="121.5" cy="113.85" r="2" fill="#213551" stroke="#EFF2F4"/>
<circle cx="144.5" cy="109.85" r="2" fill="#213551" stroke="#EFF2F4"/>
<circle cx="168.5" cy="75.8496" r="2" fill="#213551" stroke="#EFF2F4"/>
<circle cx="192.5" cy="104.85" r="2" fill="#213551" stroke="#EFF2F4"/>
<circle cx="216.5" cy="77.8496" r="2" fill="#213551" stroke="#EFF2F4"/>
<circle cx="239.5" cy="86.8496" r="2" fill="#213551" stroke="#EFF2F4"/>
<circle cx="263.5" cy="66.8496" r="2" fill="#213551" stroke="#EFF2F4"/>
<circle cx="287.5" cy="64.8496" r="2" fill="#213551" stroke="#EFF2F4"/>
<circle cx="311.5" cy="120.85" r="2" fill="#213551" stroke="#EFF2F4"/>
<g clip-path="url(#clip0_377_6108)">
<rect x="92" y="9.66895" width="102" height="20" rx="4" fill="#1C8AA9"/>
<path d="M106.887 22.6689H105.412V16.8389H102.263V22.6689H100.788V15.623H106.887V22.6689ZM110.427 22.7764C108.84 22.7764 107.834 21.7559 107.834 20.0518V20.042C107.834 18.3574 108.859 17.3271 110.427 17.3271C111.994 17.3271 113.02 18.3477 113.02 20.042V20.0518C113.02 21.7607 112.009 22.7764 110.427 22.7764ZM110.432 21.6582C111.13 21.6582 111.569 21.0723 111.569 20.0518V20.042C111.569 19.0312 111.12 18.4453 110.427 18.4453C109.738 18.4453 109.284 19.0312 109.284 20.042V20.0518C109.284 21.0771 109.729 21.6582 110.432 21.6582ZM116.218 22.7764C114.626 22.7764 113.635 21.7363 113.635 20.0469V20.042C113.635 18.3672 114.636 17.3271 116.208 17.3271C117.624 17.3271 118.527 18.2012 118.581 19.334L118.586 19.3682H117.258L117.253 19.3242C117.165 18.8262 116.813 18.4453 116.228 18.4453C115.524 18.4453 115.085 19.0459 115.085 20.0469V20.0518C115.085 21.0771 115.524 21.6582 116.232 21.6582C116.804 21.6582 117.16 21.3066 117.253 20.7793L117.263 20.7354H118.591L118.586 20.7646C118.518 21.9072 117.619 22.7764 116.218 22.7764ZM121.271 20.2422C121.179 21.7559 120.793 22.7178 119.509 22.7178C119.245 22.7178 119.06 22.6787 118.977 22.6543V21.458C119.035 21.4727 119.133 21.4873 119.265 21.4873C119.772 21.4873 119.943 21.0625 119.997 20.125L120.153 17.4346H124.245V22.6689H122.819V18.5137H121.379L121.271 20.2422ZM127.648 22.7764C126.042 22.7764 125.07 21.7363 125.07 20.0615V20.0566C125.07 18.3916 126.052 17.3271 127.59 17.3271C129.123 17.3271 130.08 18.3672 130.08 19.9492V20.3887H126.477C126.496 21.2236 126.95 21.7119 127.678 21.7119C128.264 21.7119 128.62 21.3896 128.718 21.0967L128.728 21.0674H130.036L130.026 21.1211C129.86 21.8926 129.138 22.7764 127.648 22.7764ZM127.614 18.3916C127.023 18.3916 126.589 18.7822 126.496 19.4902H128.713C128.625 18.7676 128.2 18.3916 127.614 18.3916ZM131.706 24.0605H130.407V21.5752H130.808C131.188 21.3604 131.335 20.7744 131.384 20.0664L131.555 17.4346H135.744V21.5752H136.525V24.0605H135.227V22.6689H131.706V24.0605ZM134.318 21.5752V18.5283H132.756L132.639 20.1592C132.604 20.7207 132.492 21.1895 132.248 21.5459V21.5752H134.318ZM140.598 22.6689V20.5254H138.596V22.6689H137.17V17.4346H138.596V19.4463H140.598V17.4346H142.023V22.6689H140.598ZM143.049 22.6689V17.4346H144.45V20.7012H144.499L146.564 17.4346H147.961V22.6689H146.56V19.3584H146.506L144.445 22.6689H143.049ZM151.359 22.7764C149.753 22.7764 148.781 21.7363 148.781 20.0615V20.0566C148.781 18.3916 149.763 17.3271 151.301 17.3271C152.834 17.3271 153.791 18.3672 153.791 19.9492V20.3887H150.188C150.207 21.2236 150.661 21.7119 151.389 21.7119C151.975 21.7119 152.331 21.3896 152.429 21.0967L152.438 21.0674H153.747L153.737 21.1211C153.571 21.8926 152.849 22.7764 151.359 22.7764ZM151.325 18.3916C150.734 18.3916 150.3 18.7822 150.207 19.4902H152.424C152.336 18.7676 151.911 18.3916 151.325 18.3916ZM158.342 22.6689V16.9756H158.312L156.516 18.1963V16.8877L158.337 15.623H159.802V22.6689H158.342ZM164.167 22.791C162.38 22.791 161.296 21.3896 161.296 19.1484V19.1387C161.296 16.8975 162.38 15.501 164.167 15.501C165.954 15.501 167.038 16.8975 167.038 19.1387V19.1484C167.038 21.3896 165.954 22.791 164.167 22.791ZM164.167 21.6094C165.046 21.6094 165.549 20.6963 165.549 19.1484V19.1387C165.549 17.5908 165.046 16.6826 164.167 16.6826C163.288 16.6826 162.785 17.5908 162.785 19.1387V19.1484C162.785 20.6963 163.288 21.6094 164.167 21.6094ZM169.943 22.6689V17.4346H171.345V20.7012H171.394L173.459 17.4346H174.855V22.6689H173.454V19.3584H173.4L171.34 22.6689H169.943ZM179.528 18.5088H177.307V22.6689H175.881V17.4346H179.528V18.5088ZM180.344 24.3779V17.4346H181.77V18.3477H181.799C182.087 17.7129 182.653 17.3271 183.4 17.3271C184.729 17.3271 185.534 18.3428 185.534 20.0469V20.0518C185.534 21.751 184.729 22.7764 183.42 22.7764C182.668 22.7764 182.082 22.3955 181.799 21.7754H181.77V24.3779H180.344ZM182.927 21.5947C183.64 21.5947 184.084 21.0039 184.084 20.0518V20.0469C184.084 19.0898 183.635 18.5088 182.927 18.5088C182.238 18.5088 181.76 19.1045 181.76 20.0518V20.0566C181.76 20.999 182.238 21.5947 182.927 21.5947Z" fill="white"/>
<rect x="202" y="9.66895" width="32" height="20" rx="4" fill="#213551" fill-opacity="0.1"/>
<path d="M211.911 22.6689H211.032V15.623H215.212V16.4141H211.911V22.6689ZM217.312 22.7666C215.9 22.7666 214.958 21.7461 214.958 20.1299V20.1201C214.958 18.5039 215.905 17.4932 217.307 17.4932C218.708 17.4932 219.66 18.499 219.66 20.1201V20.1299C219.66 21.751 218.713 22.7666 217.312 22.7666ZM217.316 22.0146C218.21 22.0146 218.791 21.3213 218.791 20.1299V20.1201C218.791 18.9287 218.205 18.2451 217.307 18.2451C216.423 18.2451 215.827 18.9336 215.827 20.1201V20.1299C215.827 21.3262 216.418 22.0146 217.316 22.0146ZM220.803 24.0605H220.012V21.9658H220.437C220.808 21.7217 220.988 21.0918 221.037 20.4082L221.232 17.5908H224.729V21.9658H225.534V24.0605H224.743V22.6689H220.803V24.0605ZM223.879 21.9658V18.2939H221.979L221.823 20.4277C221.779 21.0674 221.647 21.6191 221.394 21.9463V21.9658H223.879Z" fill="#04162C" fill-opacity="0.5"/>
<rect x="242" y="9.66895" width="63" height="20" rx="4" fill="#213551" fill-opacity="0.1"/>
<path d="M251.22 22.6689V15.623H253.891C255.097 15.623 255.912 16.3262 255.912 17.3809V17.3906C255.912 18.1182 255.365 18.8262 254.638 18.9287V18.9482C255.653 19.0654 256.269 19.749 256.269 20.6816V20.6914C256.269 21.9316 255.38 22.6689 253.881 22.6689H251.22ZM253.69 16.3994H252.099V18.6602H253.417C254.457 18.6602 255.023 18.2451 255.023 17.4834V17.4736C255.023 16.7803 254.54 16.3994 253.69 16.3994ZM253.666 19.417H252.099V21.8926H253.749C254.804 21.8926 255.365 21.4678 255.365 20.6572V20.6475C255.365 19.832 254.789 19.417 253.666 19.417ZM259.335 22.7666C257.895 22.7666 256.981 21.7412 256.981 20.125V20.1201C256.981 18.5186 257.914 17.4932 259.325 17.4932C260.59 17.4932 261.337 18.333 261.444 19.2021L261.449 19.2412H260.619L260.609 19.2021C260.482 18.6943 260.072 18.2451 259.325 18.2451C258.441 18.2451 257.851 18.9775 257.851 20.1299V20.1348C257.851 21.3164 258.456 22.0146 259.335 22.0146C260.028 22.0146 260.473 21.624 260.614 21.0576L260.624 21.0186H261.459L261.454 21.0527C261.317 22.0195 260.482 22.7666 259.335 22.7666ZM263.495 16.751C263.222 16.751 263.002 16.5312 263.002 16.2578C263.002 15.9844 263.222 15.7695 263.495 15.7695C263.769 15.7695 263.983 15.9844 263.983 16.2578C263.983 16.5312 263.769 16.751 263.495 16.751ZM265.312 16.751C265.043 16.751 264.823 16.5312 264.823 16.2578C264.823 15.9844 265.043 15.7695 265.312 15.7695C265.59 15.7695 265.805 15.9844 265.805 16.2578C265.805 16.5312 265.59 16.751 265.312 16.751ZM264.428 22.7666C262.968 22.7666 262.089 21.7461 262.089 20.1494V20.1445C262.089 18.5723 262.987 17.4932 264.374 17.4932C265.761 17.4932 266.605 18.5234 266.605 20.0469V20.3594H262.948C262.968 21.4043 263.544 22.0146 264.447 22.0146C265.092 22.0146 265.546 21.6924 265.692 21.2578L265.707 21.2139H266.542L266.532 21.2627C266.366 22.1025 265.536 22.7666 264.428 22.7666ZM264.369 18.2451C263.632 18.2451 263.056 18.748 262.963 19.6953H265.741C265.658 18.709 265.111 18.2451 264.369 18.2451ZM269.608 22.6689V17.5908H271.781C272.733 17.5908 273.314 18.0938 273.314 18.8994V18.9092C273.314 19.4316 272.948 19.9102 272.479 20.0078V20.0469C273.119 20.1348 273.539 20.584 273.539 21.2041V21.2139C273.539 22.1074 272.875 22.6689 271.796 22.6689H269.608ZM270.458 19.7148H271.527C272.167 19.7148 272.47 19.4854 272.47 18.9971V18.9873C272.47 18.5332 272.187 18.2939 271.654 18.2939H270.458V19.7148ZM270.458 21.9658H271.723C272.338 21.9658 272.67 21.7021 272.67 21.1943V21.1846C272.67 20.6621 272.313 20.418 271.571 20.418H270.458V21.9658ZM274.516 24.3779V17.5908H275.365V18.4502H275.385C275.702 17.8594 276.269 17.4932 276.996 17.4932C278.295 17.4932 279.154 18.5283 279.154 20.1299V20.1348C279.154 21.7363 278.285 22.7666 277.011 22.7666C276.293 22.7666 275.702 22.4053 275.385 21.8193H275.365V24.3779H274.516ZM276.83 22.0146C277.729 22.0146 278.285 21.292 278.285 20.1348V20.1299C278.285 18.9629 277.729 18.2451 276.83 18.2451C275.971 18.2451 275.36 18.9922 275.36 20.1299V20.1348C275.36 21.2676 275.976 22.0146 276.83 22.0146ZM282.201 22.7666C280.741 22.7666 279.862 21.7461 279.862 20.1494V20.1445C279.862 18.5723 280.761 17.4932 282.147 17.4932C283.534 17.4932 284.379 18.5234 284.379 20.0469V20.3594H280.722C280.741 21.4043 281.317 22.0146 282.221 22.0146C282.865 22.0146 283.319 21.6924 283.466 21.2578L283.48 21.2139H284.315L284.306 21.2627C284.14 22.1025 283.31 22.7666 282.201 22.7666ZM282.143 18.2451C281.405 18.2451 280.829 18.748 280.736 19.6953H283.515C283.432 18.709 282.885 18.2451 282.143 18.2451ZM286.181 22.6689H285.331V17.5908H286.371L288.168 21.5459H288.207L290.019 17.5908H291.015V22.6689H290.165V19.0654H290.131L288.495 22.5225H287.846L286.215 19.0654H286.181V22.6689ZM295.067 22.6689V20.8623H294.115L292.826 22.6689H291.845L293.261 20.7061C292.543 20.501 292.108 19.9736 292.108 19.2803V19.2705C292.108 18.2305 292.86 17.5908 294.027 17.5908H295.917V22.6689H295.067ZM294.032 20.1592H295.067V18.2939H294.032C293.373 18.2939 292.978 18.6504 292.978 19.2559V19.2656C292.978 19.7881 293.378 20.1592 294.032 20.1592Z" fill="#04162C" fill-opacity="0.5"/>
</g>
<defs>
<clipPath id="clip0_377_6108">
<rect width="213" height="20" fill="white" transform="translate(92 9.66895)"/>
</clipPath>
</defs>
</svg>
