<svg width="14" height="14" viewBox="0 0 14 14" fill="none" xmlns="http://www.w3.org/2000/svg">
<path d="M9.54936 9.97073C9.70962 10.4905 9.67396 10.4327 9.72741 10.529C9.46032 10.8563 9.15759 11.1258 8.81927 11.3183C8.46316 11.1258 8.16041 10.8755 7.91113 10.529C7.96458 10.4135 7.91113 10.5674 8.0714 9.98994C8.3029 10.1632 8.5522 10.2595 8.80149 10.2595C9.06858 10.2402 9.33574 10.144 9.54938 9.9707L9.54936 9.97073Z" fill="#1C8AA9"/>
<path d="M10.262 7.81437C10.173 8.77693 9.51411 9.85487 8.8019 9.85487C8.07181 9.85487 7.430:82 8.75762 7.3418 7.79506V7.77583C7.3418 7.73737 7.3418 6.77482 8.42801 6.67858C8.53482 6.64011 8.8019 6.60156 9.03342 6.60156C9.79908 6.60156 10.2799 6.92886 10.2621 7.7566C10.262 7.79515 10.262 7.81439 10.262 7.81439L10.262 7.81437Z" fill="#1C8AA9"/>
<path d="M7.18164 7.06394C7.18164 6.73664 7.25288 6.42868 7.41314 6.13993C8.03633 5.10046 8.98015 5.46621 9.81712 5.46621C9.92394 5.46621 10.1199 5.42775 10.2089 5.56246C10.2801 5.6587 10.2623 5.85121 10.2445 5.90897C10.2267 6.00522 10.2623 6.08223 10.3335 6.12069C10.6184 6.42866 10.7074 6.77519 10.5472 7.21795C10.3514 6.50566 9.71031 6.25539 9.03367 6.25539C8.71315 6.25539 8.44606 6.31317 8.3926 6.3324C7.71588 6.39019 7.35976 6.73661 7.18171 7.06391L7.18164 7.06394Z" fill="#1C8AA9"/>
<path d="M12.0959 11.973V12.8585C12.0959 12.9163 12.0603 12.9548 12.0069 12.9548H5.63208C5.57863 12.9548 5.5430:5 12.9163 5.5430:5 12.8585L5.54297 11.973C5.54297 11.4918 5.86349 11.126 6.2552 11.049L7.59071 10.7795C7.6085 10.7795 7.6085 10.7603 7.62628 10.7603C7.92903 11.1452 8.28515 11.4533 8.6947 11.665C8.76594 11.7228 8.85496 11.7228 8.90842 11.665C9.31799 11.4533 9.67409 11.1452 9.97683 10.7603C9.99462 10.7603 9.99462 10.7795 10.0124 10.7795L11.3479 11.049C11.7753 11.126 12.0959 11.4918 12.0959 11.973Z" fill="#1C8AA9"/>
<path d="M3.94031 2.7518V1.09619L2.42676 2.73247L3.94031 2.7518Z" fill="#1C8AA9"/>
<path d="M8.24961 1.01923L4.29663 1L4.27884 2.94424C4.27884 3.04049 4.18981 3.13673 4.10078 3.13673L2.32005 3.11759L2.2666 9.20067C2.2666 9.31614 2.33784 9.39316 2.44466 9.39316L7.09208 9.43162C6.84278 8.98885 6.68251 8.46907 6.62908 7.94938C6.34421 7.21788 6.43323 6.40935 6.82492 5.73563C7.18104 5.13882 7.76865 4.75386 8.40972 4.67683L8.42751 1.21171C8.42767 1.11546 8.35644 1.01913 8.24962 1.01913L8.24961 1.01923ZM4.61709 7.85305C4.61709 7.9493 4.52806 8.04555 4.43903 8.04555H3.54867C3.44185 8.04555 3.37061 7.9493 3.37061 7.85305V6.8905C3.37061 6.79425 3.45964 6.698 3.54867 6.698H4.43903C4.54585 6.698 4.61709 6.79425 4.61709 6.8905V7.85305ZM4.63496 5.44677C4.63496 5.5430:2 4.54593 5.63927 4.4569 5.63927H3.56654C3.45972 5.63927 3.38848 5.5430:2 3.38848 5.44677V4.48422C3.38848 4.36874 3.47751 4.29172 3.56654 4.29172H4.4569C4.56372 4.29172 4.63496 4.38797 4.63496 4.48422V5.44677ZM6.05949 7.56437H5.52532C5.41851 7.56437 5.34727 7.48736 5.34727 7.37188C5.34727 7.2564 5.41851 7.17938 5.52532 7.17938H6.05949C6.1663 7.17938 6.23754 7.2564 6.23754 7.37188C6.23754 7.48736 6.16631 7.56437 6.05949 7.56437ZM6.77172 5.15809H5.52524C5.41842 5.15809 5.34718 5.08108 5.34718 4.9656C5.34718 4.85012 5.41842 4.77311 5.52524 4.77311H6.77172C6.87854 4.77311 6.94978 4.85012 6.94978 4.9656C6.94978 5.08108 6.87854 5.15809 6.77172 5.15809ZM7.12784 3.13683H5.52526C5.41845 3.13683 5.3472 3.05982 5.3472 2.94434C5.3472 2.82886 5.41844 2.75184 5.52526 2.75184H7.12784C7.23465 2.75184 7.30589 2.82886 7.30589 2.94434C7.30589 3.05981 7.23474 3.13683 7.12784 3.13683Z" fill="#1C8AA9"/>
<path d="M4.27245 7.64623L3.73828 7.64242L3.74181 7.06494L4.27597 7.06875L4.27245 7.64623Z" fill="#1C8AA9"/>
<path d="M4.28416 5.24633L3.75 5.24251L3.75353 4.66504L4.28769 4.66885L4.28416 5.24633Z" fill="#1C8AA9"/>
</svg>
