<svg fill="none" height="24" viewBox="0 0 24 24" width="24" xmlns="http://www.w3.org/2000/svg"><path clip-rule="evenodd" d="m4 5c0-.79565.31607-1.55871.87868-2.12132s1.32567-.87868 2.12132-.87868h10c.7956 0 1.5587.31607 2.1213.87868s.8787 1.32567.8787 2.12132v16.028c0 1.22-1.38 1.93-2.372 1.221l-5.628-4.02-5.628 4.02c-.993.71-2.372 0-2.372-1.22zm3-1c-.26522 0-.51957.10536-.70711.29289-.18753.18754-.29289.44189-.29289.70711v15.057l5.128-3.663c.2544-.1818.5593-.2795.872-.2795s.6176.0977.872.2795l5.128 3.663v-15.057c0-.26522-.1054-.51957-.2929-.70711-.1875-.18753-.4419-.29289-.7071-.29289z" fill="#1c8aa9" fill-rule="evenodd"/></svg>