<svg fill="none" height="24" viewBox="0 0 24 24" width="24" xmlns="http://www.w3.org/2000/svg" xmlns:xlink="http://www.w3.org/1999/xlink"><mask id="a" fill="#fff"><path d="m22.4986 11.4895c.0013 1.359-.3601 2.6953-1.0492 3.8797-.9052 1.4881-2.2033 2.7167-3.7613 3.56-1.5581.8432-3.32 1.2706-5.1051 1.2385-1.5289.0058-3.04107-.3076-4.4332-.9188l-6.6498 1.9386 2.2166-5.8183c-.68911-1.1844-1.0505-2.5207-1.04925-3.8797.04154-1.66714.58152-3.28695 1.55467-4.6637.97315-1.37676 2.33783-2.45155 3.92913-3.09448 1.39214-.61115 2.90435-.92454 4.43325-.91874h.5836c2.3206.01763 4.5535.85934 6.2741 2.36503 1.7206 1.5057 2.8089 3.57036 3.0579 5.80129z" fill="#fff"/></mask><path d="m22.4986 11.4895c.0013 1.359-.3601 2.6953-1.0492 3.8797-.9052 1.4881-2.2033 2.7167-3.7613 3.56-1.5581.8432-3.32 1.2706-5.1051 1.2385-1.5289.0058-3.04107-.3076-4.4332-.9188l-6.6498 1.9386 2.2166-5.8183c-.68911-1.1844-1.0505-2.5207-1.04925-3.8797.04154-1.66714.58152-3.28695 1.55467-4.6637.97315-1.37676 2.33783-2.45155 3.92913-3.09448 1.39214-.61115 2.90435-.92454 4.43325-.91874h.5836c2.3206.01763 4.5535.85934 6.2741 2.36503 1.7206 1.5057 2.8089 3.57036 3.0579 5.80129z" mask="url(#a)" stroke="#1c8aa9" stroke-linecap="round" stroke-linejoin="round" stroke-width="3.6"/></svg>