<svg width="9" height="10" viewBox="0 0 9 10" fill="none" xmlns="http://www.w3.org/2000/svg">
<path d="M2.73124 8.77834L4.5 7.85205L6.26876 8.77834C6.81915 9.06658 7.46125 8.59896 7.35582 7.98667L7.01875 6.02898L8.44502 4.6441C8.89162 4.21046 8.64606 3.45293 8.02999 3.36375L6.05631 3.07807L5.17204 1.29329C4.89654 0.737242 4.10346 0.737241 3.82796 1.29329L2.94369 3.07807L0.970007 3.36375C0.353936 3.45293 0.108382 4.21046 0.554982 4.6441L1.98125 6.02898L1.64418 7.98667C1.53875 8.59896 2.18085 9.06657 2.73124 8.77834ZM6.99983 6.04735L6.99996 6.04722L6.99983 6.04735ZM2.00017 6.04735C2.00014 6.04732 2.00011 6.04729 2.00008 6.04726L2.00017 6.04735Z" fill="url(#paint0_radial_8324_680)" stroke="#EFF2F4" stroke-width="0.5"/>
<defs>
<radialGradient id="paint0_radial_8324_680" cx="0" cy="0" r="1" gradientUnits="userSpaceOnUse" gradientTransform="translate(0.9 1.45921) rotate(48.2664) scale(10.1402 10.2174)">
<stop stop-color="#51C276"/>
<stop offset="0.40625" stop-color="#47A99D"/>
<stop offset="1" stop-color="#3783D7"/>
</radialGradient>
</defs>
</svg>
