<svg fill="none" height="32" viewBox="0 0 32 32" width="32" xmlns="http://www.w3.org/2000/svg"><path d="m15.9998 12.6937c-.654 0-1.2933.1939-1.837.5572-.5438.3634-.9677.8798-1.2179 1.484-.2503.6042-.3158 1.2691-.1882 1.9105.1276.6415.4425 1.2306.905 1.6931.4624.4624 1.0516.7774 1.693.905.6415.1275 1.3063.0621 1.9105-.1882.6043-.2503 1.1207-.6741 1.484-1.2179.3634-.5438.5573-1.1831.5573-1.8371 0-.4342-.0855-.8642-.2517-1.2654s-.4097-.7657-.7168-1.0727c-.307-.3071-.6716-.5507-1.0728-.7168-.4011-.1662-.8311-.2517-1.2654-.2517zm13.24-3.26671c-.007-1.02965-.1966-2.0499-.56-3.01333-.2676-.70499-.6817-1.34521-1.2149-1.87842s-1.1734-.94729-1.8784-1.21491c-.9634-.36339-1.9837-.55299-3.0133-.56-1.72-.09334-2.2267-.09334-6.5734-.09334-4.3466 0-4.8533 0-6.5733.09334-1.02965.00701-2.0499.19661-3.01333.56-.70499.26762-1.34521.6817-1.87842 1.21491s-.94729 1.17343-1.21491 1.87842c-.36338.96343-.55299 1.98368-.56 3.01333-.09334 1.72001-.09334 2.22671-.09334 6.57331 0 4.3467 0 4.8534.09334 6.5734.01435 1.0332.2037 2.0566.56 3.0266.26643.7018.68017 1.3383 1.21333 1.8667.53093.5364 1.17252.9505 1.88 1.2133.96343.3634 1.98368.553 3.01333.56 1.72.0934 2.2267.0934 6.5733.0934 4.3467 0 4.8534 0 6.5734-.0934 1.0296-.007 2.0499-.1966 3.0133-.56.7075-.2628 1.3491-.6769 1.88-1.2133.5332-.5284.9469-1.1649 1.2133-1.8667.3631-.9681.5526-1.9927.56-3.0266.0934-1.72.0934-2.2267.0934-6.5734 0-4.3466 0-4.8533-.0934-6.57331zm-3.3866 10.66671c-.0428.8228-.2184 1.6332-.52 2.4-.2589.6395-.6437 1.2205-1.1316 1.7084-.4878.4879-1.0689.8727-1.7084 1.1316-.774.2848-1.589.4423-2.4134.4666h-8.16c-.8243-.0243-1.6393-.1818-2.4133-.4666-.66119-.2458-1.25829-.6377-1.74666-1.1467-.48311-.4783-.85621-1.0562-1.09334-1.6933-.28592-.7732-.43919-1.5891-.45333-2.4134v-8.16c.01414-.8242.16741-1.6401.45333-2.41331.24571-.66119.6377-1.2583 1.14667-1.74666.48044-.48051 1.05769-.85321 1.69333-1.09334.774-.28479 1.589-.44238 2.4133-.46666h8.16c.8244.02428 1.6394.18187 2.4134.46666.6612.24571 1.2583.6377 1.7466 1.14667.4831.47833.8562 1.05617 1.0934 1.69333.2848.77401.4424 1.58901.4666 2.41331v4.08c0 2.7467.0934 3.0267.0534 4.08zm-2.1334-9.92c-.1587-.430:73-.409-.82185-.7336-1.14642-.3246-.32458-.7157-.57487-1.1464-.73362-.5913-.20499-1.2142-.30428-1.84-.29333h-8c-.6289.00614-1.2519.12351-1.84.34666-.42406.15154-.81104.39162-1.13518.70427-.32415.31265-.57803.69072-.74478 1.10904-.19363.5938-.28823 1.2155-.28 1.84v8c.01322.6283.13036 1.25.34666 1.84.15875.430:7.40905.8218.73362 1.1464s.7157.5749 1.14638.7336c.5689.2092 1.1675.3263 1.7733.3467h8c.629-.0062 1.2519-.1235 1.84-.3467.430:7-.1587.8218-.409 1.1464-.7336s.5749-.7157.7336-1.1464c.2232-.5881.3406-1.211.3467-1.84v-8c.0004-.6296-.1172-1.2537-.3467-1.84zm-7.72 10.92c-.6682 0-1.3299-.1319-1.9471-.388s-1.1778-.6315-1.6497-1.1047c-.4719-.4731-.8458-1.0347-1.1003-1.6525-.2545-.6179-.3846-1.2799-.3829-1.9482 0-1.0079.2991-1.9932.8594-2.8311.5602-.8378 1.3565-1.4907 2.2879-1.8758.9315-.3851 1.9563-.4852 2.9446-.2875.9884.1976 1.8959.684 2.6077 1.3976.7118.7137 1.1958 1.6225 1.3909 2.6114.195.9888.0922 2.0134-.2953 2.9438-.3876.9305-1.0425 1.725-1.8818 2.2831-.8394.558-1.8254.8545-2.8334.8519zm5.3334-9.1867c-.2948-.0312-.5675-.1704-.7658-.3907-.1982-.2203-.3079-.5063-.3079-.8026 0-.2964.1097-.5823.3079-.80267.1983-.22033.471-.35951.7658-.39071.2947.0312.5675.17038.7657.39071.1983.22037.308.50627.308.80267 0 .2963-.1097.5823-.308.8026-.1982.2203-.471.3595-.7657.3907z" fill="#04162c" fill-opacity=".5"/></svg>