<svg fill="none" height="33" viewBox="0 0 31 33" width="31" xmlns="http://www.w3.org/2000/svg"><g fill="#008699"><path d="m20.7891 7.90868h-10.6075v-2.50691c0-1.63946 1.6539-4.918372 5.2718-4.918372 3.9243 0 5.3144 3.451182 5.3357 5.090642z"/><path clip-rule="evenodd" d="m20.1058 22.917h6.6953l.9198 2.1382h-5.8148l-.7128 1.5757h7.1841l2.3447 5.3646h-14.4994zm.1678 5.833h6.3594l.6939 1.5761h-7.7468z" fill-rule="evenodd"/><path clip-rule="evenodd" d="m.1875 32.0183 3.95286-9.1247h6.61904l3.9606 9.1247h-2.6665l-.9547-2.1821h-7.25563l-.94426 2.1821zm5.67951-6.9841h3.17578l1.16491 2.6528h-5.50653z" fill-rule="evenodd"/><path d="m8.01758 21.8517h-3.41211l5.54433-12.82631h10.6116l5.5962 12.82631h-3.4358l-4.1502-9.5968h-6.6415z"/></g></svg>