<svg width="16" height="16" viewBox="0 0 16 16" fill="none" xmlns="http://www.w3.org/2000/svg">
<path fill-rule="evenodd" clip-rule="evenodd" d="M13.522 6.46111C13.522 9.88074 9.73432 13.6597 8.43306 14.857C8.18533 15.085 7.81516 15.085 7.56743 14.857C6.26617 13.6597 2.47852 9.88074 2.47852 6.46111C2.47852 3.42992 4.95068 0.972656 8.00024 0.972656C11.0498 0.972656 13.522 3.42992 13.522 6.46111ZM10.416 6.46111C10.416 7.78725 9.33443 8.8623 8.00024 8.8623C6.66606 8.8623 5.58449 7.78725 5.58449 6.46111C5.58449 5.13496 6.66606 4.05991 8.00024 4.05991C9.33443 4.05991 10.416 5.13496 10.416 6.46111Z" fill="#008699"/>
<path d="M10.5101 6.49439C10.5101 7.88055 9.38641 9.00426 8.00024 9.00426C6.61408 9.00426 5.49037 7.88055 5.49037 6.49439C5.49037 5.10822 6.61408 3.98451 8.00024 3.98451C9.38641 3.98451 10.5101 5.10822 10.5101 6.49439Z" fill="white"/>
</svg>
