<svg fill="none" height="24" viewBox="0 0 24 24" width="24" xmlns="http://www.w3.org/2000/svg"><path clip-rule="evenodd" d="m13.5209 2.2345c-.9759-.39567-2.0675-.39567-3.0434 0l-7.49791 3.04096c-.37833.15325-.7023.41595-.93041.75446s-.34996.73741-.34996 1.14559v9.65099c0 .4082.12185.8071.34996 1.1456.22809.3385.55212.6012.93041.7545l7.49791 3.0399c.9759.3957 2.0675.3957 3.0434 0l7.498-3.04c.3781-.1531.702-.4157.93-.7539.2281-.3383.3501-.7371.3503-1.1451v-9.65298c0-.4082-.1218-.80709-.3499-1.1456-.2281-.33848-.5522-.60121-.9305-.75446zm3.2458 5.37182 2.6685-1.02981-6.5915-2.67279-.0028-.00256c-.104-.04193-.2103-.07579-.3181-.10158-.0512-.01226-.1028-.0227-.1546-.03131-.4057-.0671-.8253-.02225-1.2122.13454l-1.91502.777zm-13.26572.14388 7.74822 3.0133v9.3707c-.0314-.0108-.0628-.0226-.0932-.0354l-7.49902-3.04c-.046-.0187-.0854-.0506-.11319-.0917-.02778-.0412-.04268-.0897-.04281-.1393zm16.99822.02429-7.7482 2.99131v9.3691c.029-.0103.0578-.022.0863-.0336l7.5059-3.0428c.0462-.0187.0857-.0508.1135-.0921.0278-.0414.0426-.0901.0425-.1399zm-13.28372-2.27448-2.6245 1.0638 7.40972 2.88151 2.6895-1.03781z" fill="#1c8aa9" fill-rule="evenodd"/></svg>