<svg width="12" height="12" viewBox="0 0 12 12" fill="none" xmlns="http://www.w3.org/2000/svg">
<rect width="12" height="12" rx="6" fill="#008699"/>
<path d="M7.62499 7.10403L7.20099 7.54926C7.20099 7.54926 6.4006 7.6742 5.4156 6.63725C4.43061 5.6003 4.58 4.823 4.58 4.823L4.94767 4.43671C5.18333 4.18895 5.20567 3.79083 5 3.5L4.79161 3.30352C4.53694 2.94352 4.04528 2.89587 3.75361 3.20294L3.23028 3.75353C3.08595 3.906 2.98929 4.10294 3.00095 4.32177C3.03095 4.88189 3.27028 6.08649 4.60494 7.49191C6.0206 8.98204 7.34892 9.04134 7.89192 8.98769C8.06392 8.97075 8.21325 8.87828 8.33358 8.75122L8.80691 8.25286C9.12691 7.9165 9.03691 7.33944 8.62758 7.10403L8.43032 6.99214C8.16165 6.83755 7.83499 6.88308 7.62499 7.10403Z" fill="white"/>
</svg>
