<svg fill="none" height="16" viewBox="0 0 17 16" width="17" xmlns="http://www.w3.org/2000/svg" xmlns:xlink="http://www.w3.org/1999/xlink"><clipPath id="a"><path d="m.357422 0h16v16h-16z"/></clipPath><g clip-path="url(#a)"><path d="m14.1773 15.2358c.2929.2929.7678.2929 1.0607 0s.2929-.7678 0-1.0607zm1.0607-1.0607-3.6212-3.6212-1.0607 1.0607 3.6212 3.6212z" fill="#1c8aa9"/><g stroke="#1c8aa9" stroke-width="1.5"><path d="m10.7599 3.80911c2.1741 2.32956 2.2003 5.54608.4163 7.21109-1.78404 1.665-4.9911 1.4172-7.16526-.9124-2.17416-2.32955-2.20029-5.54607-.41629-7.21105 1.784-1.66499 4.99107-1.4172 7.16525.91236z"/><path d="m2.73828 8.69019 6.50876-6.07456"/><path d="m4.80225 1.89355 7.01705 7.51868"/><path d="m5.49023 11.1968 6.50877-6.07457"/><path d="m2.52637 3.91309 7.36328 7.90571"/></g></g></svg>