<svg width="16" height="16" viewBox="0 0 16 16" fill="none" xmlns="http://www.w3.org/2000/svg">
<path d="M13.0039 2.42435H10.0159C9.86949 2.01693 9.59687 1.66393 9.23573 1.41418C8.87459 1.16443 8.44276 1.03027 8 1.03027C7.55724 1.03027 7.12541 1.16443 6.76427 1.41418C6.40313 1.66393 6.13051 2.01693 5.98414 2.42435H2.99609C2.61692 2.42435 2.25327 2.57121 1.98515 2.83262C1.71703 3.09403 1.56641 3.44858 1.56641 3.81828V13.5758C1.56641 13.9455 1.71703 14.3 1.98515 14.5615C2.25327 14.8229 2.61692 14.9697 2.99609 14.9697H13.0039C13.3831 14.9697 13.7467 14.8229 14.0148 14.5615C14.283 14.3 14.4336 13.9455 14.4336 13.5758V3.81828C14.4336 3.44858 14.283 3.09403 14.0148 2.83262C13.7467 2.57121 13.3831 2.42435 13.0039 2.42435ZM8 2.42435C8.14138 2.42435 8.27959 2.46522 8.39715 2.54181C8.5147 2.61839 8.60632 2.72724 8.66043 2.85459C8.71453 2.98195 8.72869 3.12208 8.70111 3.25728C8.67353 3.39248 8.60544 3.51667 8.50547 3.61414C8.4055 3.71161 8.27812 3.77799 8.13946 3.80489C8.00079 3.83178 7.85706 3.81798 7.72644 3.76522C7.59582 3.71247 7.48418 3.62314 7.40563 3.50852C7.32708 3.39391 7.28516 3.25916 7.28516 3.12131C7.28566 2.93662 7.36113 2.75962 7.49508 2.62902C7.62904 2.49842 7.81057 2.42484 8 2.42435V2.42435ZM6.57031 12.1819L3.71094 9.394L4.71934 8.41082L6.57031 10.209L11.2807 5.61645L12.2891 6.60614L6.57031 12.1819Z" fill="#FFB547"/>
</svg>
