<svg fill="none" height="16" viewBox="0 0 16 16" width="16" xmlns="http://www.w3.org/2000/svg"><path d="m7.99885 5.56113c-.48241 0-.95399.14305-1.3551.41107-.40111.26801-.71374.64895-.89835 1.09464s-.23291.93611-.1388 1.40925.32642.90775.66753 1.24887c.34112.34114.77573.57344 1.24887.66754s.96357.0458 1.40926-.1388.82662-.49725 1.09464-.89836c.268-.40111.4111-.87269.4111-1.3551-.002-.6463-.2596-1.26557-.71657-1.72258-.45701-.457-1.07628-.7146-1.72258-.71653zm5.26605 2.43911c-.0013.22791-.018.45547-.05.68113l1.4845 1.16223c.0647.05339.1082.12803.1229.2106.0147.0825-.0004.1676-.0427.24l-1.4043 2.4245c-.0427.0718-.1094.1262-.1882.1537-.0789.0275-.1649.0263-.2429-.0034l-1.7455-.7012c-.3635.2799-.7613.5121-1.1836.6912l-.261 1.8531c-.01461.083-.05759.1583-.1216.2132-.06401.0548-.14507.0857-.22933.0874h-2.80864c-.08273-.0016-.16248-.0312-.22621-.084-.06374-.0528-.1077-.1256-.12472-.2066l-.26098-1.8531c-.42354-.1769-.82157-.4096-1.18358-.6918l-1.74549.7013c-.07803.0297-.16403.0309-.24288.0035-.07885-.0275-.1455-.0818-.18824-.1535l-1.40432-2.4242c-.04227-.0724-.05741-.1575-.04272-.2401.01469-.08251.05825-.15715.12291-.21053l1.4845-1.16224c-.03166-.22907-.04836-.45995-.05-.69119.00127-.22791.01798-.45547.05-.68112l-1.4845-1.16224c-.06466-.05338-.10822-.12802-.12291-.21057s.00045-.16764.04272-.24005l1.40432-2.42448c.04269-.07177.10933-.12619.18818-.15369.07885-.02749.16488-.02629.24294.00338l1.74549.70124c.36346-.27988.76121-.51216 1.18358-.69118l.26098-1.85312c.01461-.083.05759-.15836.12159-.21319.06401-.05483.14507-.085735.22934-.087427h2.80864c.08273.00161.16247.031217.22621.083987.06373.05277.1077.12559.12472.20657l.261 1.85312c.424.17683.8226.40948 1.1851.69179l1.744-.70124c.078-.0297.164-.03094.2428-.00351.0789.02744.1455.08179.1883.15351l1.4043 2.42448c.0423.07241.0574.1575.0427.24005s-.0582.15719-.1229.21058l-1.4845 1.16223c.0316.22897.0483.45975.05.69088z" fill="#008699"/></svg>