<svg fill="none" height="16" viewBox="0 0 16 16" width="16" xmlns="http://www.w3.org/2000/svg" xmlns:xlink="http://www.w3.org/1999/xlink"><clipPath id="a"><path d="m.007813.000977h16v16h-16z"/></clipPath><g clip-path="url(#a)"><path d="m8.00666 5.56162c-.48241 0-.95399.1430:5-1.3551.41106-.40111.26802-.71374.64895-.89835 1.09464s-.23291.93612-.1388 1.40926c.09412.47314.32642.90775.66754 1.24887.34111.34115.77572.57345 1.24886.66755s.96357.0458 1.40926-.1388.82663-.49726 1.09463-.89837.4111-.87269.4111-1.3551c-.002-.6463-.2596-1.26557-.71656-1.72258-.457-.457-1.07628-.7146-1.72258-.71653zm5.26604 2.43911c-.0013.22791-.018.45547-.05.68112l1.4845 1.16224c.0647.05339.1082.12803.1229.21061.0147.0825-.0004.1676-.0427.24l-1.4043 2.4245c-.0427.0718-.1093.1262-.1882.1537s-.1649.0263-.2429-.0034l-1.7455-.7012c-.3635.2798-.7612.5121-1.1836.6911l-.26099 1.8532c-.01461.083-.05759.1583-.1216.2132-.064.0548-.14507.0857-.22933.0874h-2.80864c-.08273-.0016-.16247-.0312-.22621-.084s-.1077-.1256-.12472-.2066l-.26098-1.8531c-.42353-.1769-.82157-.4096-1.18358-.6918l-1.74549.7013c-.07803.0297-.16403.0309-.24288.0035-.07885-.0275-.1455-.0818-.18824-.1535l-1.40432-2.4242c-.04227-.0724-.05741-.1575-.04272-.2401.01469-.08252.05825-.15716.12291-.21055l1.48451-1.16223c-.03167-.22907-.04837-.45995-.05001-.69119.00127-.22791.01798-.45547.05001-.68112l-1.48451-1.16224c-.06466-.05338-.10822-.12802-.12291-.21057-.01469-.08256.00045-.16764.04272-.24005l1.40432-2.42448c.04269-.07178.10933-.12619.18818-.15369.07886-.02749.16488-.0263.24294.00338l1.74549.70124c.36346-.27988.76121-.51216 1.18358-.69118l.26098-1.85312c.01461-.083.05759-.15836.1216-.21319.064-.05484.14507-.085737.22933-.087429h2.80864c.08273.001611.16247.031219.22621.083989s.1077.12559.12472.20657l.26099 1.85312c.4241.17682.8226.40948 1.1851.69179l1.744-.70124c.078-.0297.164-.03094.2428-.00351.0789.02744.1455.08179.1883.15351l1.4043 2.42448c.0423.07241.0574.1575.0427.24005s-.0582.15719-.1229.21058l-1.4845 1.16223c.0317.22897.0484.45975.05.69088z" fill="#1c8aa9"/></g></svg>