<svg fill="none" height="17" viewBox="0 0 16 17" width="16" xmlns="http://www.w3.org/2000/svg"><g fill="#1c8aa9"><path d="m10.7501 14.2287c-.0139.1722-.0264.3195-.0361.4669-.0166.2423-.0347.4847-.043.7271 0 .0854-.0514.0771-.1083.0771h-2.91375c-.734 0-1.46943 0-2.20482 0-.08603 0-.11378-.0193-.11933-.1102-.0222-.4131-.05411-.8262-.08325-1.2476-.04578.0743-.08046.1377-.12347.1955-.07014.0975-.1608.1786-.26567.2378-.10487.0593-.22144.0952-.34168.1053-.12023.0101-.24123-.0059-.35463-.0468-.1134-.041-.21646-.1059-.30208-.1902-.55502-.5509-1.11005-1.1017-1.66507-1.6526-.16203-.1547-.28799-.3427-.36907-.5508-.05651-.1669-.0791-.3433-.06648-.5189s.06023-.3471.14003-.5043c.1837-.3693.39376-.725.62856-1.0645.44263-.70371.87135-1.41843 1.3778-2.08081.21458-.29416.49543-.5345.82017-.70186.32473-.16736.68439-.25711 1.05026-.26212h.28583c.02318-.0031.04671.00232.06614.01526s.0334.0325.03929.05497c.32561.77577.65214 1.55063.9796 2.32456.13181.31123.26089.6238.39409.9337.01101.024.01669.05.01669.0764s-.00568.0524-.01669.0764c-.15124.3939-.29974.7891-.44821 1.1844-.06521.1735-.02217.2561.15405.3167l.82004.2754c.03012.0164.0637.0256.09807.0268.03436.0012.06852-.0057.09972-.02.0312-.0144.05859-.0358.0799-.0625.02132-.0268.03597-.0582.04281-.0916.17668-.4637.35197-.9278.52588-1.3923.01721-.0287.02702-.0612.02862-.0945.0016-.0334-.00509-.0666-.01948-.0968s-.036-.0565-.06301-.0764c-.027-.02-.05856-.033-.09184-.038-.06799-.0234-.13875-.0496-.20258-.0675-.06382-.0179-.08325-.0551-.05411-.1239.1665-.38839.32746-.7781.49119-1.16782.27751-.64449.54533-1.28759.81174-1.92794.01185-.04035.03773-.07523.07305-.09843.03531-.0232.07773-.03322.11979-.02828.5938-.0326 1.1794.1494 1.6484.51229.2428.19117.452.42105.6188.68028.58.84554 1.1253 1.7131 1.6651 2.5848.1597.2405.2648.5126.308.7974.0217.1801.0035.3628-.0533.5352-.0568.1725-.1508.3305-.2755.4632-.0666.0771-.1388.1501-.2082.2231-.5078.5123-1.0166 1.0241-1.5263 1.5355-.0892.1036-.2025.184-.3302.2345-.1276.0504-.2656.0692-.4022.0548-.1366-.0143-.2676-.0615-.3818-.1373-.1141-.0759-.2079-.1782-.2733-.298zm.401-4.30069-.0222.01104-.3095 3.47025c.0666-.0702.1097-.1198.1568-.168.4774-.481.9552-.9616 1.4334-1.4418.0121-.0081.0222-.0189.0295-.0315.0072-.0126.0115-.0267.0125-.0412.0009-.0145-.0015-.029-.0071-.0424s-.0142-.0254-.0252-.035c-.3108-.4131-.6175-.8386-.9269-1.2587zm-6.28836 0c-.04856.01928-.06103.05373-.08045.07989-.401.5508-.80063 1.0907-1.2044 1.6319-.0555.0743-.04301.1129.01804.1735.47037.4627.93799.9309 1.40837 1.3936.05134.0496.08323.1198.1651.1653z"/><path d="m7.9946 5.8544c-.43351-.00054-.85713-.12855-1.2174-.36787-.36026-.23932-.64101-.57923-.80678-.97679s-.20913-.83495-.12462-1.25696c.08451-.422.29308-.80969.59943-1.11412s.69673-.51195 1.12182-.59635c.4251-.08441.86587-.04192 1.26665.1221.40078.16403.74359.44223.98518.79948.24162.35726.37112.77753.37222 1.20779.002.28697-.0534.57148-.163.83703-.10967.26555-.27132.50685-.47565.7099s-.44727.3638-.71469.47294-.55401.1645-.84316.16285z"/><path d="m7.99485 10.1235-.42319-1.00394-.79925-1.89491c-.04995-.1198-.04993-.11979.07495-.11979h2.30607c.11517 0 .11656 0 .07215.10466l-1.17801 2.80108c-.01527.0303-.02913.0592-.05272.1129z"/></g></svg>