<svg width="16" height="16" viewBox="0 0 16 16" fill="none" xmlns="http://www.w3.org/2000/svg">
<path d="M8 11.3363C8.18889 11.3363 8.34733 11.2723 8.47533 11.1443C8.60333 11.0163 8.66711 10.858 8.66667 10.6696C8.66667 10.4807 8.60267 10.3223 8.47467 10.1943C8.34667 10.0663 8.18844 10.0025 8 10.0029C7.81111 10.0029 7.65267 10.0669 7.52467 10.1949C7.39667 10.3229 7.33289 10.4812 7.33333 10.6696C7.33333 10.8585 7.39733 11.0169 7.52533 11.1449C7.65333 11.2729 7.81156 11.3367 8 11.3363ZM7.33333 8.6696H8.66667V4.6696H7.33333V8.6696ZM5.5 14.0029L2 10.5029V5.50293L5.5 2.00293H10.5L14 5.50293V10.5029L10.5 14.0029H5.5Z" fill="#008699"/>
</svg>
